<svg width="24" height="25" viewBox="0 0 24 25" fill="none" xmlns="http://www.w3.org/2000/svg">
<path d="M4.1421 4.32875L6.00913 16.4644C6.02271 16.5646 6.05113 16.6601 6.0921 16.7485C6.21543 17.0148 6.45246 17.2177 6.74088 17.2949C6.82899 17.3185 6.92133 17.3304 7.01578 17.3288H18C18.4416 17.3288 18.8309 17.0391 18.9578 16.6161L21.9578 6.6161C22.0487 6.31332 21.991 5.98543 21.8023 5.73182C21.6136 5.47821 21.3161 5.32875 21 5.32875H6.31948L5.99058 3.19094C5.97826 3.10156 5.95413 3.01595 5.91981 2.93573C5.85751 2.78966 5.76213 2.66312 5.64429 2.56394C5.53497 2.47175 5.40561 2.40257 5.26367 2.36388C5.17434 2.33941 5.0806 2.32716 4.9847 2.32875H3C2.44772 2.32875 2 2.77647 2 3.32875C2 3.88104 2.44772 4.32875 3 4.32875H4.1421ZM7.85794 15.3288L6.62717 7.32875H19.656L17.256 15.3288H7.85794Z" fill="white"/>
<path d="M10 20.3288C10 21.4333 9.10457 22.3288 8 22.3288C6.89543 22.3288 6 21.4333 6 20.3288C6 19.2242 6.89543 18.3288 8 18.3288C9.10457 18.3288 10 19.2242 10 20.3288Z" fill="white"/>
<path d="M19 20.3288C19 21.4333 18.1046 22.3288 17 22.3288C15.8954 22.3288 15 21.4333 15 20.3288C15 19.2242 15.8954 18.3288 17 18.3288C18.1046 18.3288 19 19.2242 19 20.3288Z" fill="white"/>
<circle cx="17" cy="20.3286" r="2" fill="#FFC201"/>
</svg>
