<svg width="18" height="18" viewBox="0 0 18 18" fill="none" xmlns="http://www.w3.org/2000/svg">
<path d="M2.01542 1.7779L3.675 12.5652C3.68707 12.6542 3.71233 12.7391 3.74875 12.8177C3.85837 13.0544 4.06907 13.2347 4.32544 13.3033C4.40376 13.3244 4.48585 13.3349 4.5698 13.3335H14.3336C14.7261 13.3335 15.0722 13.076 15.185 12.7L17.8516 3.8111C17.9324 3.54196 17.8811 3.2505 17.7134 3.02507C17.5456 2.79964 17.2812 2.66679 17.0002 2.66679H3.95086L3.65851 0.766515C3.64756 0.687064 3.62611 0.610964 3.5956 0.539661C3.54023 0.409815 3.45544 0.297341 3.3507 0.209181C3.25352 0.127234 3.13853 0.0657433 3.01237 0.0313465C2.93296 0.00960055 2.84964 -0.00129156 2.76439 0.000122071H1.00022C0.509297 0.000122071 0.111328 0.398091 0.111328 0.889011C0.111328 1.37993 0.509297 1.7779 1.00022 1.7779H2.01542ZM5.31838 11.5557L4.22437 4.44457H15.8055L13.6722 11.5557H5.31838Z" fill="black"/>
<path d="M7.22244 16.0001C7.22244 16.982 6.4265 17.7779 5.44466 17.7779C4.46282 17.7779 3.66688 16.982 3.66688 16.0001C3.66688 15.0183 4.46282 14.2223 5.44466 14.2223C6.4265 14.2223 7.22244 15.0183 7.22244 16.0001Z" fill="black"/>
<path d="M15.2224 16.0001C15.2224 16.982 14.4265 17.7779 13.4447 17.7779C12.4628 17.7779 11.6669 16.982 11.6669 16.0001C11.6669 15.0183 12.4628 14.2223 13.4447 14.2223C14.4265 14.2223 15.2224 15.0183 15.2224 16.0001Z" fill="black"/>
</svg>
