<svg width="20" height="21" viewBox="0 0 20 21" fill="none" xmlns="http://www.w3.org/2000/svg">
<path d="M2.1421 2.32858L4.00913 14.4643C4.02271 14.5644 4.05113 14.6599 4.0921 14.7484C4.21543 15.0146 4.45246 15.2175 4.74088 15.2947C4.82899 15.3184 4.92133 15.3302 5.01578 15.3286H16C16.4416 15.3286 16.8309 15.0389 16.9578 14.6159L19.9578 4.61593C20.0487 4.31316 19.991 3.98526 19.8023 3.73165C19.6136 3.47804 19.3161 3.32858 19 3.32858H4.31948L3.99058 1.19077C3.97826 1.10139 3.95413 1.01578 3.91981 0.935564C3.85751 0.789487 3.76213 0.662954 3.64429 0.563774C3.53497 0.471583 3.40561 0.402407 3.26367 0.36371C3.17434 0.339246 3.0806 0.326992 2.9847 0.328583H1C0.447715 0.328583 0 0.776298 0 1.32858C0 1.88087 0.447715 2.32858 1 2.32858H2.1421ZM5.85794 13.3286L4.62717 5.32858H17.656L15.256 13.3286H5.85794Z" fill="#444A52"/>
<path d="M8 18.3286C8 19.4332 7.10457 20.3286 6 20.3286C4.89543 20.3286 4 19.4332 4 18.3286C4 17.224 4.89543 16.3286 6 16.3286C7.10457 16.3286 8 17.224 8 18.3286Z" fill="#444A52"/>
<path d="M17 18.3286C17 19.4332 16.1046 20.3286 15 20.3286C13.8954 20.3286 13 19.4332 13 18.3286C13 17.224 13.8954 16.3286 15 16.3286C16.1046 16.3286 17 17.224 17 18.3286Z" fill="#444A52"/>
</svg>
