<svg width="47" height="46" viewBox="0 0 47 46" fill="none" xmlns="http://www.w3.org/2000/svg">
<path d="M36.4176 46.0002C36.2873 46.0002 36.155 45.9734 36.0342 45.9197C35.6586 45.7568 26.834 41.8102 26.834 33.7466V26.9691C26.834 26.5627 27.0927 26.1985 27.4761 26.0644L36.1013 23.0532C36.3064 22.9823 36.5288 22.9823 36.7339 23.0532L45.3591 26.0644C45.7424 26.1985 46.0012 26.5627 46.0012 26.9691V33.7466C46.0012 41.8122 37.1766 45.7568 36.8009 45.9197C36.6802 45.9734 36.5479 46.0002 36.4176 46.0002ZM28.7507 27.6495V33.7466C28.7507 39.698 34.8133 43.1654 36.4157 43.978C38.0181 43.1634 44.0845 39.6808 44.0845 33.7466V27.6495L36.4176 24.9737L28.7507 27.6495Z" fill="black"/>
<path d="M35.6343 37.8909C35.617 37.8909 35.5978 37.8909 35.5825 37.889C35.3027 37.8736 35.0477 37.7395 34.8772 37.519L31.7395 33.4652C31.4156 33.0454 31.4922 32.4435 31.912 32.1196C32.3279 31.7957 32.9317 31.8704 33.2556 32.2902L35.7148 35.47L40.4337 30.5901C40.7998 30.2106 41.4074 30.201 41.7889 30.5671C42.1684 30.9351 42.1799 31.5408 41.8119 31.9222L36.3243 37.5976C36.1403 37.7854 35.893 37.8909 35.6343 37.8909Z" fill="black"/>
<path d="M37.3767 21.0824C36.8477 21.0824 36.4184 20.653 36.4184 20.124V11.6118L19.6068 20.0224C19.1391 20.2582 18.5584 20.0684 18.3207 19.5931C18.0868 19.1216 18.2766 18.5446 18.75 18.3089L36.9474 9.20444C37.2426 9.05493 37.5972 9.07218 37.8789 9.2466C38.1626 9.42103 38.3351 9.72962 38.3351 10.0612V20.124C38.3351 20.653 37.9058 21.0824 37.3767 21.0824Z" fill="black"/>
<path d="M19.1557 38.3329C19.0024 38.3329 18.8491 38.2965 18.7091 38.2217L0.511765 28.6381C0.197422 28.4733 0 28.1474 0 27.7909V10.0612C0 9.72962 0.172505 9.42103 0.454263 9.2466C0.734105 9.07218 1.09062 9.05493 1.38579 9.20444L19.5832 18.3089C19.9071 18.4718 20.1122 18.8034 20.1122 19.1656V37.3745C20.1122 37.7099 19.9358 38.0205 19.6502 38.1949C19.4988 38.2869 19.3282 38.3329 19.1557 38.3329ZM1.91672 27.2121L18.1974 35.7856V19.7579L1.91672 11.6118V27.2121Z" fill="black"/>
<path d="M37.3757 11.0202C37.232 11.0202 37.0863 10.9876 36.9464 10.9186L19.1554 2.02885L1.38733 10.9186C0.917737 11.1525 0.338886 10.9646 0.101213 10.4912C-0.134544 10.0178 0.0552112 9.44082 0.528642 9.20506L18.726 0.100628C18.9963 -0.0335427 19.3144 -0.0335427 19.5828 0.100628L37.8032 9.20506C38.2766 9.44274 38.4683 10.0178 38.2325 10.4912C38.0638 10.8266 37.7265 11.0202 37.3757 11.0202Z" fill="black"/>
<path d="M9.66637 22.4994C9.13735 22.4994 8.70801 22.0701 8.70801 21.5411V14.4147C8.70801 14.0524 8.9131 13.7209 9.23702 13.5579L27.4344 4.4535C27.904 4.21966 28.4828 4.40941 28.7205 4.88284C28.9563 5.35627 28.7646 5.93129 28.2912 6.16896L10.6247 15.0089V21.543C10.6247 22.072 10.1954 22.4994 9.66637 22.4994Z" fill="black"/>
<path d="M19.1561 38.3331C18.8131 38.3331 18.4815 38.1491 18.3109 37.8233C18.0617 37.3556 18.24 36.7748 18.7076 36.5276L22.5526 34.4882C23.0222 34.2409 23.601 34.4173 23.8483 34.8869C24.0975 35.3545 23.9192 35.9353 23.4515 36.1826L19.6066 38.222C19.4609 38.2967 19.3076 38.3331 19.1561 38.3331Z" fill="black"/>
</svg>
