<svg width="40" height="36" viewBox="0 0 40 36" fill="none" xmlns="http://www.w3.org/2000/svg">
<path d="M39.5143 20.2641C39.5143 20.2639 39.5142 20.2638 39.5142 20.2636L32.0432 1.3008C31.8846 0.897892 31.4329 0.701197 31.0343 0.861478C31.034 0.861576 31.0337 0.861675 31.0334 0.861871L0.724724 13.0617C0.601121 13.1157 0.493927 13.2018 0.414017 13.3114C0.161956 13.4438 0.00271869 13.7059 0 13.9929V34.4084C0 34.8421 0.347798 35.1936 0.776767 35.1936H33.401C33.83 35.1936 34.1778 34.8421 34.1778 34.4084V23.2584L39.0807 21.2844C39.4792 21.1237 39.6733 20.6669 39.5143 20.2641ZM32.6242 33.6232H1.55353V14.7782H32.6242V33.6232ZM12.9604 13.2117L25.9666 7.97274C27.1273 9.20611 28.7357 9.90711 30.4198 9.91378L31.717 13.2117H12.9604ZM34.1778 21.5718V13.9929C34.1778 13.5593 33.83 13.2077 33.401 13.2077H33.3886L31.7426 9.02885C31.7243 8.994 31.7031 8.96083 31.6789 8.92991C31.5956 8.55173 31.2492 8.29369 30.8672 8.3253C29.3002 8.46968 27.7674 7.80245 26.7946 6.55229C26.5525 6.25028 26.1271 6.17519 25.798 6.37641C25.7611 6.38082 25.7245 6.38769 25.6885 6.39682L9.80979 12.7884C9.61764 12.8646 9.46394 13.0157 9.38335 13.2077H4.56118L30.8874 2.61132L37.7843 20.1176L34.1778 21.5718Z" fill="black"/>
<path d="M3.66203 28.3223C5.17013 28.7729 6.35023 29.9644 6.79784 31.4883C6.89601 31.8209 7.19866 32.0488 7.54199 32.0489C7.58228 32.0464 7.62228 32.0403 7.66161 32.0308C7.69647 32.0409 7.7321 32.0482 7.76803 32.0528H26.4104C26.4425 32.0486 26.4741 32.042 26.5052 32.0332C26.8933 32.1286 27.2844 31.888 27.3789 31.4957C27.3792 31.4943 27.3796 31.4929 27.3798 31.4914C27.8263 29.9659 29.0066 28.7728 30.5157 28.3215C30.8816 28.2084 31.109 27.8398 31.0485 27.4578C31.0589 27.4197 31.0664 27.3808 31.071 27.3416V21.0599C31.0665 21.0205 31.0587 20.9817 31.0477 20.9437C31.1086 20.5616 30.8811 20.1927 30.5149 20.08C29.0058 19.6287 27.8258 18.4351 27.3806 16.9093C27.2682 16.5368 26.8999 16.3063 26.52 16.3706C26.484 16.3605 26.4474 16.3531 26.4104 16.3486H7.76803C7.7289 16.3533 7.69015 16.3612 7.65229 16.3722C7.27449 16.3113 6.90999 16.5411 6.79784 16.9108C6.35111 18.436 5.1709 19.6287 3.66203 20.08C3.29608 20.193 3.06868 20.5617 3.12917 20.9437C3.11907 20.9819 3.11179 21.0206 3.10742 21.0599V27.3416C3.11189 27.3785 3.11917 27.415 3.12917 27.4507C3.06548 27.8352 3.29336 28.208 3.66203 28.3223ZM4.66096 21.3787C6.22071 20.7454 7.45693 19.4958 8.08339 17.9191H26.0943C26.7211 19.4958 27.9576 20.7454 29.5175 21.3787V27.0228C27.9582 27.6567 26.7222 28.9062 26.0951 30.4824H8.08339C7.45625 28.9062 6.22022 27.6567 4.66096 27.0228V21.3787Z" fill="black"/>
<path d="M17.0893 28.9118C19.6633 28.9118 21.7499 26.8025 21.7499 24.2005C21.7499 21.5985 19.6633 19.4893 17.0893 19.4893C14.5153 19.4893 12.4287 21.5985 12.4287 24.2005C12.4312 26.8014 14.5164 28.9092 17.0893 28.9118ZM17.0893 21.0597C18.8053 21.0597 20.1964 22.4659 20.1964 24.2005C20.1964 25.9351 18.8053 27.3414 17.0893 27.3414C15.3733 27.3414 13.9822 25.9351 13.9822 24.2005C13.9822 22.4659 15.3733 21.0597 17.0893 21.0597Z" fill="black"/>
<path d="M8.54406 25.3786C9.18751 25.3786 9.70921 24.8512 9.70921 24.2008C9.70921 23.5503 9.18751 23.0229 8.54406 23.0229C7.9006 23.0229 7.37891 23.5503 7.37891 24.2008C7.37891 24.8513 7.9006 25.3786 8.54406 25.3786ZM8.54406 23.8082C8.75854 23.8082 8.93244 23.9839 8.93244 24.2008C8.93244 24.4176 8.75854 24.5934 8.54406 24.5934C8.32957 24.5934 8.15567 24.4176 8.15567 24.2008C8.15567 23.9839 8.32957 23.8082 8.54406 23.8082Z" fill="black"/>
<path d="M25.6329 25.3786C26.2764 25.3786 26.7981 24.8512 26.7981 24.2008C26.7981 23.5503 26.2764 23.0229 25.6329 23.0229C24.9895 23.0229 24.4678 23.5503 24.4678 24.2008C24.4678 24.8513 24.9895 25.3786 25.6329 25.3786ZM25.6329 23.8082C25.8474 23.8082 26.0213 23.9839 26.0213 24.2008C26.0213 24.4176 25.8474 24.5934 25.6329 24.5934C25.4184 24.5934 25.2445 24.4176 25.2445 24.2008C25.2445 23.9839 25.4184 23.8082 25.6329 23.8082Z" fill="black"/>
</svg>
