<svg width="43" height="41" viewBox="0 0 43 41" fill="none" xmlns="http://www.w3.org/2000/svg">
<path d="M42.6297 22.4729C42.2462 18.6156 40.5229 14.9791 37.7771 12.2332C35.4306 9.88673 32.5585 8.37886 29.5364 7.70839V5.58877C30.7707 5.28169 31.6882 4.1644 31.6882 2.83639C31.6882 1.27237 30.4158 0 28.8518 0H22.8454C21.2813 0 20.009 1.27237 20.009 2.83639C20.009 4.16432 20.9265 5.28161 22.1607 5.58877V7.71431C19.1479 8.38762 16.2853 9.89341 13.9454 12.2333C13.4334 12.7453 12.9612 13.2825 12.529 13.8407C12.5081 13.8392 12.4871 13.8376 12.4658 13.8376H6.52094C6.06028 13.8376 5.68671 14.2111 5.68671 14.6718C5.68671 15.1326 6.06028 15.506 6.52094 15.506H11.3939C10.7822 16.5301 10.289 17.6055 9.9136 18.7125H0.834232C0.373569 18.7125 0 19.086 0 19.5467C0 20.0075 0.373569 20.381 0.834232 20.381H9.44217C9.20175 21.4363 9.06376 22.5104 9.02814 23.5875H5.33908C4.87842 23.5875 4.50485 23.961 4.50485 24.4217C4.50485 24.8825 4.87842 25.256 5.33908 25.256H9.05475C9.12516 26.3358 9.29877 27.4099 9.57565 28.4625H4.17116C3.7105 28.4625 3.33693 28.836 3.33693 29.2967C3.33693 29.7575 3.7105 30.131 4.17116 30.131H10.1081C10.9264 32.2959 12.2054 34.325 13.9454 36.065C16.6939 38.8135 20.3342 40.5372 24.1955 40.9187C24.7466 40.9731 25.2981 41 25.8488 41C29.1042 41 32.3181 40.0579 35.0452 38.282C35.4313 38.0306 35.5405 37.5137 35.2891 37.1277C35.0377 36.7416 34.5209 36.6324 34.1348 36.8838C28.1653 40.7711 20.1706 39.9306 15.1252 34.8852C9.20533 28.9654 9.20533 19.3331 15.1252 13.4131C21.045 7.49332 30.6773 7.49332 36.5973 13.4131C41.6359 18.4519 42.481 26.4397 38.6066 32.4063C38.3557 32.7927 38.4655 33.3095 38.8519 33.5603C39.2384 33.8113 39.755 33.7014 40.0058 33.315C42.0759 30.127 43.0077 26.2766 42.6297 22.4729ZM21.6774 2.83647C21.6774 2.19245 22.2013 1.66855 22.8454 1.66855H28.8518C29.4959 1.66855 30.0198 2.19245 30.0198 2.83647C30.0198 3.4805 29.4959 4.0044 28.8518 4.0044H28.7022H22.9949H22.8454C22.2013 4.0044 21.6774 3.48042 21.6774 2.83647ZM23.8292 7.4275V5.67286H27.8679V7.4245C26.5268 7.26499 25.17 7.26599 23.8292 7.4275Z" fill="black"/>
<path d="M37.1887 34.6406C36.9685 34.6406 36.7541 34.7299 36.599 34.8851C36.443 35.0402 36.3545 35.2554 36.3545 35.4748C36.3545 35.6942 36.443 35.9095 36.599 36.0646C36.7541 36.2206 36.9686 36.3091 37.1887 36.3091C37.4081 36.3091 37.6225 36.2206 37.7785 36.0646C37.9337 35.9095 38.0229 35.6942 38.0229 35.4748C38.0229 35.2554 37.9338 35.0402 37.7785 34.8851C37.6225 34.7299 37.408 34.6406 37.1887 34.6406Z" fill="black"/>
<path d="M25.8613 11.2075C18.7254 11.2075 12.9199 17.0129 12.9199 24.1489C12.9199 31.2848 18.7254 37.0902 25.8613 37.0902C32.9971 37.0902 38.8026 31.2848 38.8026 24.1489C38.8026 17.0129 32.9971 11.2075 25.8613 11.2075ZM25.8613 35.4218C19.6453 35.4218 14.5884 30.3647 14.5884 24.1489C14.5884 17.933 19.6453 12.876 25.8613 12.876C32.0772 12.876 37.1342 17.933 37.1342 24.1489C37.1342 30.3647 32.0772 35.4218 25.8613 35.4218Z" fill="black"/>
<path d="M31.1389 17.6926L27.0069 21.8244C26.6614 21.6536 26.2727 21.5571 25.8618 21.5571C25.4509 21.5571 25.0623 21.6536 24.7168 21.8244L22.8675 19.9752C22.5417 19.6494 22.0136 19.6494 21.6877 19.9752C21.3619 20.301 21.3619 20.8292 21.6877 21.155L23.5369 23.0042C23.366 23.3497 23.2696 23.7384 23.2696 24.1493C23.2696 25.5786 24.4324 26.7416 25.8618 26.7416C27.2913 26.7416 28.4541 25.5786 28.4541 24.1493C28.4541 23.7384 28.3576 23.3497 28.1868 23.0042L32.1974 18.9936L32.3186 18.8723C32.6444 18.5466 32.6444 18.0183 32.3186 17.6926C31.9929 17.3668 31.4648 17.3668 31.1389 17.6926ZM25.8618 25.0732C25.3525 25.0732 24.938 24.6587 24.938 24.1494C24.938 23.64 25.3525 23.2255 25.8618 23.2255C26.3712 23.2255 26.7857 23.64 26.7857 24.1494C26.7857 24.6587 26.3712 25.0732 25.8618 25.0732Z" fill="black"/>
<path d="M34.781 23.3252H34.008C33.5474 23.3252 33.1738 23.6987 33.1738 24.1594C33.1738 24.6202 33.5474 24.9936 34.008 24.9936H34.781C35.2416 24.9936 35.6152 24.6202 35.6152 24.1594C35.6152 23.6987 35.2416 23.3252 34.781 23.3252Z" fill="black"/>
<path d="M17.7154 23.3042H16.9426C16.482 23.3042 16.1084 23.6777 16.1084 24.1384C16.1084 24.5992 16.482 24.9726 16.9426 24.9726H17.7154C18.1761 24.9726 18.5497 24.5992 18.5497 24.1384C18.5497 23.6777 18.1761 23.3042 17.7154 23.3042Z" fill="black"/>
<path d="M25.8723 16.8363C26.333 16.8363 26.7065 16.4628 26.7065 16.0021V15.2292C26.7065 14.7685 26.333 14.395 25.8723 14.395C25.4116 14.395 25.0381 14.7685 25.0381 15.2292V16.0021C25.0381 16.4628 25.4116 16.8363 25.8723 16.8363Z" fill="black"/>
<path d="M25.8508 31.4614C25.3902 31.4614 25.0166 31.8349 25.0166 32.2956V33.0685C25.0166 33.5292 25.3902 33.9027 25.8508 33.9027C26.3115 33.9027 26.685 33.5292 26.685 33.0685V32.2956C26.685 31.8349 26.3115 31.4614 25.8508 31.4614Z" fill="black"/>
<path d="M0.834219 28.4624C0.614819 28.4624 0.399591 28.5517 0.244426 28.7068C0.0892614 28.862 0 29.0772 0 29.2966C0 29.5169 0.089178 29.7313 0.244426 29.8864C0.399674 30.0416 0.614819 30.1308 0.834219 30.1308C1.05362 30.1308 1.26885 30.0416 1.42393 29.8864C1.57909 29.7313 1.66844 29.516 1.66844 29.2966C1.66844 29.0772 1.57918 28.862 1.42393 28.7068C1.26885 28.5517 1.05362 28.4624 0.834219 28.4624Z" fill="black"/>
</svg>
