<svg width="15" height="19" viewBox="0 0 15 19" fill="none" xmlns="http://www.w3.org/2000/svg">
<path fill-rule="evenodd" clip-rule="evenodd" d="M4.17656 2.61294C4.17656 1.69477 4.92089 0.950439 5.83906 0.950439H9.16406C10.0822 0.950439 10.8266 1.69477 10.8266 2.61294V3.32429H12.4891C13.4072 3.32429 14.1516 4.06861 14.1516 4.98679V6.41179C14.1516 6.80529 13.8326 7.12429 13.4391 7.12429H13.2016V16.3868C13.2016 17.305 12.4572 18.0493 11.5391 18.0493H3.46406C2.54589 18.0493 1.80156 17.305 1.80156 16.3868V7.12429H1.56406C1.17056 7.12429 0.851562 6.80529 0.851562 6.41179V4.98679C0.851562 4.06861 1.59589 3.32429 2.51406 3.32429H4.17656V2.61294ZM9.40156 3.32429H5.60156V2.61294C5.60156 2.48177 5.7079 2.37544 5.83906 2.37544H9.16406C9.29523 2.37544 9.40156 2.48177 9.40156 2.61294V3.32429ZM4.84818 4.74929H2.51406C2.3829 4.74929 2.27656 4.85562 2.27656 4.98679V5.69929H2.51325C2.51352 5.69929 2.51379 5.69929 2.51406 5.69929H12.4891C12.4893 5.69929 12.4896 5.69929 12.4899 5.69929H12.7266V4.98679C12.7266 4.85562 12.6202 4.74929 12.4891 4.74929H10.1549C10.1414 4.75005 10.1278 4.75044 10.1141 4.75044H4.88906C4.87534 4.75044 4.86171 4.75005 4.84818 4.74929ZM3.22656 7.12429V16.3868C3.22656 16.518 3.3329 16.6243 3.46406 16.6243H11.5391C11.6702 16.6243 11.7766 16.518 11.7766 16.3868V7.12429H3.22656ZM5.12656 8.54929C5.52007 8.54929 5.83906 8.86828 5.83906 9.26179V14.4868C5.83906 14.8803 5.52007 15.1993 5.12656 15.1993C4.73306 15.1993 4.41406 14.8803 4.41406 14.4868V9.26179C4.41406 8.86828 4.73306 8.54929 5.12656 8.54929ZM7.50156 8.54929C7.89507 8.54929 8.21406 8.86828 8.21406 9.26179V14.4868C8.21406 14.8803 7.89507 15.1993 7.50156 15.1993C7.10806 15.1993 6.78906 14.8803 6.78906 14.4868V9.26179C6.78906 8.86828 7.10806 8.54929 7.50156 8.54929ZM9.87656 8.54929C10.2701 8.54929 10.5891 8.86828 10.5891 9.26179V14.4868C10.5891 14.8803 10.2701 15.1993 9.87656 15.1993C9.48306 15.1993 9.16406 14.8803 9.16406 14.4868V9.26179C9.16406 8.86828 9.48306 8.54929 9.87656 8.54929Z" fill="#757575"/>
</svg>
