<svg width="32" height="40" viewBox="0 0 32 40" fill="none" xmlns="http://www.w3.org/2000/svg">
<path fill-rule="evenodd" clip-rule="evenodd" d="M1.36402 0H12.8911C13.3246 0 13.676 0.350647 13.676 0.783386C13.676 1.21582 13.3246 1.56647 12.8911 1.56647H2.14894V37.2644L3.72856 35.6125C4.03709 35.2878 4.55507 35.2863 4.86451 35.611L7.23058 38.085L9.59543 35.6125C9.90365 35.2878 10.4216 35.2863 10.7311 35.611L13.0974 38.085L15.462 35.6125C15.7705 35.2878 16.2882 35.2863 16.5979 35.611L18.964 38.085L21.3286 35.6125C21.6371 35.2878 22.1551 35.2863 22.4645 35.611L24.8306 38.085L27.1954 35.6125C27.5039 35.2878 28.0216 35.2863 28.3311 35.611L29.9125 37.2644V1.56647H19.1698C18.7365 1.56647 18.3849 1.21582 18.3849 0.783386C18.3849 0.350647 18.7365 0 19.1698 0H30.6971C31.1304 0 31.4817 0.350647 31.4817 0.783386V39.2166C31.4817 39.6494 31.1304 40 30.6971 40C30.4534 40 30.2357 39.8892 30.0917 39.7153L27.7635 37.2809L25.3975 39.7552C25.088 40.08 24.5701 40.0784 24.2618 39.7537L21.897 37.2809L19.5309 39.7552C19.2215 40.08 18.7035 40.0784 18.395 39.7537L16.0304 37.2809L13.6644 39.7552C13.3549 40.08 12.8369 40.0784 12.5284 39.7537L10.1639 37.2809L7.79779 39.7552C7.48835 40.08 6.97037 40.0784 6.66184 39.7537L4.2973 37.2809L1.93123 39.7552C1.6331 40.0677 1.13744 40.0803 0.824331 39.7827C0.662578 39.6292 0.581242 39.4232 0.581242 39.2166L0.579102 0.783386C0.579102 0.350647 0.930435 0 1.36402 0V0ZM16.0304 0C15.5971 0 15.2455 0.350647 15.2455 0.783386C15.2455 1.21582 15.5971 1.56647 16.0304 1.56647C16.464 1.56647 16.815 1.21582 16.815 0.783386C16.815 0.350647 16.464 0 16.0304 0V0ZM4.51929 26.1655H27.5419C27.9751 26.1655 28.3265 25.8148 28.3265 25.3821C28.3265 24.9496 27.9751 24.599 27.5419 24.599H4.51929C4.08571 24.599 3.73437 24.9496 3.73437 25.3821C3.73437 25.8148 4.08571 26.1655 4.51929 26.1655ZM14.4349 30.2338H27.5419C27.9751 30.2338 28.3265 29.8831 28.3265 29.4504C28.3265 29.0179 27.9751 28.6673 27.5419 28.6673H14.4349C14.0016 28.6673 13.65 29.0179 13.65 29.4504C13.65 29.8831 14.0016 30.2338 14.4349 30.2338ZM14.5973 10.7379H17.3942C17.8278 10.7379 18.1791 10.3873 18.1791 9.95483C18.1791 9.52209 17.8278 9.17145 17.3942 9.17145H14.5973C14.164 9.17145 13.8123 9.52209 13.8123 9.95483C13.8123 10.3873 14.164 10.7379 14.5973 10.7379ZM14.5973 18.8748H17.3942C17.8278 18.8748 18.1791 18.5239 18.1791 18.0914C18.1791 17.6587 17.8278 17.308 17.3942 17.308H14.5973C14.164 17.308 13.8123 17.6587 13.8123 18.0914C13.8123 18.5239 14.164 18.8748 14.5973 18.8748ZM14.5973 14.8065H17.3942C17.8278 14.8065 18.1791 14.4556 18.1791 14.0231C18.1791 13.5907 17.8278 13.2397 17.3942 13.2397H14.5973C14.164 13.2397 13.8123 13.5907 13.8123 14.0231C13.8123 14.4556 14.164 14.8065 14.5973 14.8065ZM4.51929 10.7379H11.5035C11.9367 10.7379 12.2884 10.3873 12.2884 9.95483C12.2884 9.52209 11.9367 9.17145 11.5035 9.17145H4.51929C4.08571 9.17145 3.73437 9.52209 3.73437 9.95483C3.73437 10.3873 4.08571 10.7379 4.51929 10.7379ZM4.51929 18.8748H11.5035C11.9367 18.8748 12.2884 18.5239 12.2884 18.0914C12.2884 17.6587 11.9367 17.308 11.5035 17.308H4.51929C4.08571 17.308 3.73437 17.6587 3.73437 18.0914C3.73437 18.5239 4.08571 18.8748 4.51929 18.8748ZM4.51929 14.8065H11.5035C11.9367 14.8065 12.2884 14.4556 12.2884 14.0231C12.2884 13.5907 11.9367 13.2397 11.5035 13.2397H4.51929C4.08571 13.2397 3.73437 13.5907 3.73437 14.0231C3.73437 14.4556 4.08571 14.8065 4.51929 14.8065ZM27.2792 11.4166C27.2792 10.4807 26.8988 9.63318 26.2842 9.01978C25.8467 8.58307 25.2901 8.26477 24.6676 8.11798V7.12189C24.6676 6.68915 24.3163 6.3385 23.8827 6.3385C23.4494 6.3385 23.0981 6.68915 23.0981 7.12189V8.11798C22.4755 8.26508 21.919 8.58307 21.4814 9.01978C20.8668 9.63318 20.4865 10.4807 20.4865 11.4166C20.4865 12.3526 20.8668 13.2001 21.4814 13.8135C22.096 14.4269 22.9452 14.8065 23.883 14.8065C24.3875 14.8065 24.844 15.0104 25.1746 15.3403C25.5051 15.6702 25.7097 16.1261 25.7097 16.6296C25.7097 17.1332 25.5051 17.5888 25.1746 17.9187C24.844 18.2486 24.3875 18.4528 23.883 18.4528C23.3785 18.4528 22.9216 18.2486 22.5911 17.9187C22.2605 17.5891 22.056 17.1332 22.056 16.6296C22.056 16.1969 21.705 15.8463 21.2714 15.8463C20.8378 15.8463 20.4865 16.1969 20.4865 16.6296C20.4865 17.5656 20.8668 18.4131 21.4814 19.0265C21.919 19.4632 22.4755 19.7812 23.0981 19.9283V20.9244C23.0981 21.3571 23.4494 21.7078 23.883 21.7078C24.3163 21.7078 24.6676 21.3571 24.6676 20.9244V19.928C25.2905 19.7812 25.847 19.4632 26.2842 19.0262C26.8988 18.4128 27.2792 17.5653 27.2792 16.6293C27.2792 15.6934 26.8988 14.8459 26.2842 14.2325C25.6696 13.6191 24.8205 13.2397 23.8827 13.2397C23.3785 13.2397 22.9216 13.0356 22.5911 12.7057C22.2605 12.3758 22.056 11.9202 22.056 11.4166C22.056 10.9131 22.2605 10.4572 22.5911 10.1276C22.9216 9.79767 23.3785 9.59351 23.8827 9.59351C24.3872 9.59351 24.844 9.79767 25.1746 10.1276C25.5051 10.4572 25.7094 10.9131 25.7094 11.4166C25.7094 11.8494 26.061 12.2 26.4943 12.2C26.9279 12.2 27.2792 11.8494 27.2792 11.4166Z" fill="black"/>
</svg>
