<svg width="15" height="17" viewBox="0 0 15 17" fill="none" xmlns="http://www.w3.org/2000/svg">
<path fill-rule="evenodd" clip-rule="evenodd" d="M12.5249 2.9318C11.5171 1.92394 9.86445 1.94251 8.83369 2.97327L3.14284 8.66412C1.60515 10.2018 1.57745 12.6672 3.08097 14.1707C4.58449 15.6742 7.04988 15.6465 8.58756 14.1088L12.7639 9.93249C13.0934 9.60299 13.6217 9.59705 13.9439 9.91924C14.2661 10.2414 14.2601 10.7697 13.9306 11.0992L9.75429 15.2756C7.55759 17.4723 4.03561 17.5118 1.88773 15.364C-0.260156 13.2161 -0.220582 9.69409 1.97612 7.49739L7.66697 1.80654C9.35673 0.116776 12.066 0.086336 13.7182 1.73855C15.3704 3.39077 15.3399 6.09999 13.6502 7.78976L7.99757 13.4424C6.8781 14.5618 5.08325 14.582 3.98865 13.4874C2.89406 12.3928 2.91422 10.598 4.03369 9.47848L9.76279 3.74939C10.0923 3.41988 10.6206 3.41395 10.9428 3.73613C11.265 4.05831 11.259 4.58661 10.9295 4.91611L5.20042 10.6452C4.73996 11.1057 4.73166 11.8439 5.18189 12.2942C5.63212 12.7444 6.37038 12.7361 6.83085 12.2756L12.4835 6.62303C13.5142 5.59227 13.5328 3.93965 12.5249 2.9318Z" fill="#444A52"/>
</svg>
