 <svg width="22" height="22" viewBox="0 0 22 22" fill="none" xmlns="http://www.w3.org/2000/svg">
<path fill-rule="evenodd" clip-rule="evenodd" d="M11 2.0002C6.02945 2.0002 2.00001 6.02963 2.00001 11.0002C2.00001 15.9708 6.02945 20.0002 11 20.0002C15.9706 20.0002 20 15.9708 20 11.0002C20 6.02963 15.9706 2.0002 11 2.0002ZM0.200012 11.0002C0.200012 5.03552 5.03534 0.200195 11 0.200195C16.9647 0.200195 21.8 5.03552 21.8 11.0002C21.8 16.9649 16.9647 21.8002 11 21.8002C5.03534 21.8002 0.200012 16.9649 0.200012 11.0002ZM15.412 6.36004C15.8208 6.64283 15.9229 7.20345 15.6402 7.61222L10.2442 15.4122C10.0794 15.6504 9.81007 15.7948 9.52047 15.8C9.23087 15.8053 8.95642 15.6709 8.78306 15.4389L6.37901 12.221C6.08152 11.8228 6.16315 11.2588 6.56135 10.9614C6.95955 10.6639 7.52352 10.7455 7.82101 11.1437L9.47597 13.3589L14.1599 6.58817C14.4426 6.17939 15.0033 6.07726 15.412 6.36004Z" fill="#0C9B45"/>
</svg>
