<svg width="22" height="22" viewBox="0 0 22 22" fill="none" xmlns="http://www.w3.org/2000/svg">
<path fill-rule="evenodd" clip-rule="evenodd" d="M10.8 1.8C5.82944 1.8 1.8 5.82944 1.8 10.8C1.8 15.7706 5.82944 19.8 10.8 19.8C15.7706 19.8 19.8 15.7706 19.8 10.8C19.8 5.82944 15.7706 1.8 10.8 1.8ZM0 10.8C0 4.83532 4.83532 0 10.8 0C16.7647 0 21.6 4.83532 21.6 10.8C21.6 16.7647 16.7647 21.6 10.8 21.6C4.83532 21.6 0 16.7647 0 10.8Z" fill="#EA2D2D"/>
<path d="M6.96025 6.16475C6.74058 5.94508 6.38442 5.94508 6.16475 6.16475C5.94508 6.38442 5.94508 6.74058 6.16475 6.96025L9.7045 10.5L6.16475 14.0398C5.94508 14.2594 5.94508 14.6156 6.16475 14.8352C6.38442 15.0549 6.74058 15.0549 6.96025 14.8352L10.5 11.2955L14.0398 14.8352C14.2594 15.0549 14.6156 15.0549 14.8352 14.8352C15.0549 14.6156 15.0549 14.2594 14.8352 14.0398L11.2955 10.5L14.8352 6.96025C15.0549 6.74058 15.0549 6.38442 14.8352 6.16475C14.6156 5.94508 14.2594 5.94508 14.0398 6.16475L10.5 9.7045L6.96025 6.16475Z" fill="#EA2D2D"/>
</svg>
