<svg width="40" height="40" viewBox="0 0 40 40" fill="none" xmlns="http://www.w3.org/2000/svg">
<path d="M38.9382 13.7271L26.2721 1.06121C25.5884 0.377539 24.6766 0.000976562 23.7045 0.000976562C22.7326 0.000976562 21.8207 0.377383 21.137 1.06105L1.06023 21.1379C0.376562 21.8216 0 22.7333 0 23.7054C0 24.6774 0.376562 25.5893 1.06023 26.2729L2.62211 27.8347C2.62227 27.8348 2.62234 27.835 2.6225 27.8351C2.62266 27.8353 2.62281 27.8354 2.62297 27.8356L13.1198 38.3325H11.6664C11.2062 38.3325 10.8331 38.7055 10.8331 39.1657C10.8331 39.6259 11.2062 39.999 11.6664 39.999H16.2905C16.2916 39.999 16.2927 39.9991 16.2937 39.9991C16.2948 39.9991 16.2959 39.999 16.297 39.999L28.3323 39.9992C28.7925 39.9992 29.1656 39.6261 29.1656 39.1659C29.1656 38.7057 28.7925 38.3326 28.3323 38.3326L19.468 38.3325L38.9383 18.8622C40.3539 17.4464 40.3539 15.1428 38.9382 13.7271ZM37.7598 17.6837L17.6829 37.7606C17.3147 38.1287 16.8225 38.3317 16.2968 38.3325H16.2905C15.7649 38.3316 15.2729 38.1287 14.9048 37.7606L4.39023 27.2459L23.6711 7.96488C23.9965 7.63949 23.9965 7.11184 23.6711 6.78645C23.3456 6.46105 22.8181 6.46105 22.4926 6.78652L3.21172 26.0675L2.23859 25.0944C1.86977 24.7256 1.66664 24.2323 1.66664 23.7054C1.66664 23.1786 1.86977 22.6852 2.23867 22.3163L22.3154 2.23957C22.6843 1.87074 23.1777 1.66762 23.7045 1.66762C24.2314 1.66762 24.7248 1.87074 25.0937 2.23965L29.6017 6.74762L10.3206 26.0289C9.99523 26.3542 9.99523 26.8818 10.3206 27.2074C10.4834 27.37 10.6966 27.4514 10.9098 27.4514C11.123 27.4514 11.3363 27.37 11.4991 27.2073L30.7802 7.92613L37.7598 14.9055C38.5256 15.6714 38.5255 16.9178 37.7598 17.6837Z" fill="black"/>
<path d="M20.5317 24.0673C20.2063 23.7419 19.6788 23.7419 19.3531 24.0673L12.7958 30.6245C12.4704 30.9499 12.4704 31.4775 12.7958 31.803C12.9585 31.9658 13.1718 32.0471 13.385 32.0471C13.5982 32.0471 13.8115 31.9657 13.9742 31.803L20.5316 25.2458C20.8571 24.9202 20.8571 24.3926 20.5317 24.0673Z" fill="black"/>
<path d="M17.8417 30.292L15.1522 32.9814C14.8269 33.3068 14.8269 33.8345 15.1522 34.1599C15.315 34.3226 15.5283 34.404 15.7415 34.404C15.9548 34.404 16.1679 34.3226 16.3307 34.1599L19.0201 31.4705C19.3455 31.1451 19.3455 30.6174 19.0201 30.292C18.6947 29.9665 18.1673 29.9665 17.8417 30.292Z" fill="black"/>
<path d="M20.3164 27.8172L19.9629 28.1707C19.6374 28.4961 19.6374 29.0236 19.9628 29.3492C20.1254 29.5119 20.3388 29.5933 20.552 29.5933C20.7652 29.5933 20.9785 29.5119 21.1411 29.3492L21.4947 28.9958C21.8201 28.6704 21.8201 28.1428 21.4947 27.8173C21.1695 27.4919 20.6418 27.4919 20.3164 27.8172Z" fill="black"/>
<path d="M31.8018 12.7958C31.6455 12.6396 31.4336 12.5518 31.2126 12.5518C30.9916 12.5518 30.7797 12.6396 30.6234 12.7958L27.0878 16.3313C26.9316 16.4876 26.8438 16.6995 26.8438 16.9205C26.8438 17.1415 26.9316 17.3535 27.0878 17.5097L29.4448 19.8665C29.6076 20.0293 29.8209 20.1106 30.0341 20.1106C30.2474 20.1106 30.4605 20.0292 30.6233 19.8665L34.1587 16.3312C34.4841 16.0058 34.4841 15.4782 34.1587 15.1528L31.8018 12.7958ZM30.034 18.0989L28.8555 16.9205L31.2125 14.5636L32.3909 15.7421L30.034 18.0989Z" fill="black"/>
<path d="M25.0267 6.2644C25.24 6.2644 25.4533 6.18299 25.6159 6.02018L25.9695 5.6665C26.2948 5.34104 26.2947 4.81338 25.9692 4.48807C25.6438 4.16275 25.1161 4.16283 24.7908 4.4883L24.4373 4.84197C24.112 5.16744 24.1121 5.6951 24.4375 6.02041C24.6003 6.18315 24.8134 6.2644 25.0267 6.2644Z" fill="black"/>
<path d="M8.37588 27.9731L8.02236 28.3266C7.69697 28.6519 7.69697 29.1796 8.02236 29.5051C8.1851 29.6678 8.39838 29.7491 8.61158 29.7491C8.82479 29.7491 9.03807 29.6678 9.2008 29.5051L9.55432 29.1516C9.87971 28.8261 9.87971 28.2985 9.55432 27.9731C9.22885 27.6476 8.70135 27.6476 8.37588 27.9731Z" fill="black"/>
</svg>
