<svg width="22" height="22" viewBox="0 0 22 22" fill="none" xmlns="http://www.w3.org/2000/svg">
<path d="M11 1.375C5.68477 1.375 1.375 5.68477 1.375 11C1.375 16.3152 5.68477 20.625 11 20.625C16.3152 20.625 20.625 16.3152 20.625 11C20.625 5.68477 16.3152 1.375 11 1.375ZM11 18.9922C6.58711 18.9922 3.00781 15.4129 3.00781 11C3.00781 6.58711 6.58711 3.00781 11 3.00781C15.4129 3.00781 18.9922 6.58711 18.9922 11C18.9922 15.4129 15.4129 18.9922 11 18.9922Z" fill="white"/>
<path d="M15.4559 10.7233L9.09434 6.10418C9.04332 6.06678 8.98291 6.04428 8.91986 6.03919C8.8568 6.0341 8.79357 6.04663 8.73721 6.07536C8.68086 6.1041 8.63358 6.14792 8.60067 6.20194C8.56775 6.25596 8.55048 6.31807 8.55079 6.38133V15.6196C8.55079 15.9011 8.86875 16.06 9.09434 15.8968L15.4559 11.2776C15.4998 11.246 15.5356 11.2043 15.5602 11.1561C15.5849 11.108 15.5978 11.0546 15.5978 11.0005C15.5978 10.9463 15.5849 10.893 15.5602 10.8448C15.5356 10.7966 15.4998 10.755 15.4559 10.7233ZM9.92149 13.6022V8.39871L13.5029 11.0005L9.92149 13.6022Z" fill="white"/>
</svg>
