<svg width="20" height="20" viewBox="0 0 20 20" fill="none" xmlns="http://www.w3.org/2000/svg">
<path d="M15.0999 8.1999C15.597 8.1999 15.9999 7.79696 15.9999 7.2999C15.9999 6.80285 15.597 6.3999 15.0999 6.3999C14.6028 6.3999 14.1999 6.80285 14.1999 7.2999C14.1999 7.79696 14.6028 8.1999 15.0999 8.1999Z" fill="#757575"/>
<path fill-rule="evenodd" clip-rule="evenodd" d="M4.8999 0.399902C4.40285 0.399902 3.9999 0.802846 3.9999 1.2999V3.9999H2.4999C1.3401 3.9999 0.399902 4.9401 0.399902 6.0999V13.8999C0.399902 15.0597 1.3401 15.9999 2.4999 15.9999H3.9999V18.6999C3.9999 19.197 4.40285 19.5999 4.8999 19.5999H15.0999C15.597 19.5999 15.9999 19.197 15.9999 18.6999V15.9999H17.4999C18.6597 15.9999 19.5999 15.0597 19.5999 13.8999V6.0999C19.5999 4.9401 18.6597 3.9999 17.4999 3.9999H15.9999V1.2999C15.9999 0.802846 15.597 0.399902 15.0999 0.399902H4.8999ZM14.1999 3.9999H5.7999V2.1999H14.1999V3.9999ZM2.4999 5.7999H17.4999C17.6656 5.7999 17.7999 5.93422 17.7999 6.0999V13.8999C17.7999 14.0656 17.6656 14.1999 17.4999 14.1999H15.9999V10.8999C15.9999 10.4028 15.597 9.9999 15.0999 9.9999H4.8999C4.40285 9.9999 3.9999 10.4028 3.9999 10.8999V14.1999H2.4999C2.33422 14.1999 2.1999 14.0656 2.1999 13.8999V6.0999C2.1999 5.93422 2.33422 5.7999 2.4999 5.7999ZM5.7999 11.7999H14.1999V17.7999H5.7999V11.7999Z" fill="#757575"/>
</svg>
