<svg width="37" height="37" viewBox="0 0 37 37" fill="none" xmlns="http://www.w3.org/2000/svg">
<path d="M37 25.04C37 19.6469 33.3661 14.935 28.2417 13.5151C27.9197 6.00821 21.7127 0 14.1279 0C6.33764 0 0 6.33764 0 14.1279C0 16.6668 0.675797 19.1388 1.95908 21.309L0.0519409 28.2036L6.94682 26.2968C8.94174 27.4765 11.1921 28.141 13.5148 28.2412C14.9344 33.3658 19.6467 37 25.04 37C27.1928 37 29.2862 36.4267 31.1256 35.3373L36.9478 36.9478L35.3373 31.1256C36.4267 29.2862 37 27.1928 37 25.04ZM7.28895 23.9527L3.16134 25.0945L4.30319 20.9669L4.04292 20.5599C2.81638 18.6409 2.16797 16.4167 2.16797 14.1279C2.16797 7.53313 7.53313 2.16797 14.1279 2.16797C20.7227 2.16797 26.0879 7.53313 26.0879 14.1279C26.0879 20.7227 20.7227 26.0879 14.1279 26.0879C11.8391 26.0879 9.61528 25.4395 7.69601 24.2129L7.28895 23.9527ZM33.8387 33.8387L30.7758 32.9912L30.3668 33.2574C28.7812 34.2875 26.939 34.832 25.04 34.832C20.8012 34.832 17.0764 32.0913 15.7567 28.1613C22.2477 27.4129 27.4129 22.2477 28.1616 15.7564C32.0913 17.0764 34.832 20.8012 34.832 25.04C34.832 26.939 34.2875 28.7812 33.2574 30.3668L32.9912 30.7758L33.8387 33.8387Z" fill="black"/>
<path d="M13.0439 19.584H15.2119V21.752H13.0439V19.584Z" fill="black"/>
<path d="M16.2959 10.8398C16.2959 11.4555 16.0452 12.0238 15.5902 12.4401L13.0439 14.7707V17.416H15.2119V15.7254L17.0538 14.0396C17.9498 13.2195 18.4639 12.0534 18.4639 10.8398C18.4639 8.44887 16.5189 6.50391 14.1279 6.50391C11.737 6.50391 9.79199 8.44887 9.79199 10.8398H11.96C11.96 9.64436 12.9324 8.67188 14.1279 8.67188C15.3234 8.67188 16.2959 9.64436 16.2959 10.8398Z" fill="black"/>
</svg>
