<svg width="24" height="25" viewBox="0 0 24 25" fill="none" xmlns="http://www.w3.org/2000/svg">
<path d="M10 4.32861C6.68629 4.32861 4 7.0149 4 10.3286C4 13.6423 6.68629 16.3286 10 16.3286C13.3137 16.3286 16 13.6423 16 10.3286C16 7.0149 13.3137 4.32861 10 4.32861ZM2 10.3286C2 5.91034 5.58172 2.32861 10 2.32861C14.4183 2.32861 18 5.91034 18 10.3286C18 12.1773 17.3729 13.8796 16.3199 15.2343L21.7071 20.6215C22.0976 21.012 22.0976 21.6452 21.7071 22.0357C21.3166 22.4262 20.6834 22.4262 20.2929 22.0357L14.9056 16.6485C13.551 17.7015 11.8487 18.3286 10 18.3286C5.58172 18.3286 2 14.7469 2 10.3286Z" fill="#ffc201"/>
</svg>
