<svg width="20" height="21" viewBox="0 0 20 21" fill="none" xmlns="http://www.w3.org/2000/svg">
<path d="M8 2.32858C4.68629 2.32858 2 5.01487 2 8.32858C2 11.6423 4.68629 14.3286 8 14.3286C11.3137 14.3286 14 11.6423 14 8.32858C14 5.01487 11.3137 2.32858 8 2.32858ZM0 8.32858C0 3.91031 3.58172 0.328583 8 0.328583C12.4183 0.328583 16 3.91031 16 8.32858C16 10.1773 15.3729 11.8795 14.3199 13.2342L19.7071 18.6215C20.0976 19.012 20.0976 19.6452 19.7071 20.0357C19.3166 20.4262 18.6834 20.4262 18.2929 20.0357L12.9056 14.6484C11.551 15.7015 9.84871 16.3286 8 16.3286C3.58172 16.3286 0 12.7469 0 8.32858Z" fill="#444A52"/>
</svg>
