<svg width="24" height="25" viewBox="0 0 24 25" fill="none" xmlns="http://www.w3.org/2000/svg">
<path d="M4.8 3.0665C4.16348 3.0665 3.55303 3.31936 3.10294 3.76945C2.65286 4.21953 2.4 4.82998 2.4 5.4665V19.8665C2.4 20.503 2.65286 21.1135 3.10294 21.5636C3.55303 22.0136 4.16348 22.2665 4.8 22.2665H19.2C19.8365 22.2665 20.447 22.0136 20.8971 21.5636C21.3471 21.1135 21.6 20.503 21.6 19.8665V5.4665C21.6 4.82998 21.3471 4.21953 20.8971 3.76945C20.447 3.31936 19.8365 3.0665 19.2 3.0665H4.8ZM4.8 0.666504H19.2C20.473 0.666504 21.6939 1.17222 22.5941 2.07239C23.4943 2.97257 24 4.19346 24 5.4665V19.8665C24 21.1395 23.4943 22.3604 22.5941 23.2606C21.6939 24.1608 20.473 24.6665 19.2 24.6665H4.8C3.52696 24.6665 2.30606 24.1608 1.40589 23.2606C0.505713 22.3604 0 21.1395 0 19.8665V5.4665C0 4.19346 0.505713 2.97257 1.40589 2.07239C2.30606 1.17222 3.52696 0.666504 4.8 0.666504Z" fill="#6C6E72"/>
<g opacity="0.3">
<path d="M17.5212 6.83595C17.3561 6.84796 17.1941 6.88669 17.0414 6.95063H17.0394C16.8928 7.00875 16.1959 7.30189 15.1365 7.74623L11.34 9.34515C8.61587 10.492 5.93799 11.6214 5.93799 11.6214L5.96987 11.609C5.96987 11.609 5.78525 11.6697 5.59239 11.8019C5.47324 11.8777 5.37072 11.9769 5.29102 12.0935C5.19639 12.2323 5.12027 12.4447 5.14856 12.6643C5.19485 13.0357 5.43553 13.2583 5.60833 13.3813C5.78319 13.5057 5.94982 13.5638 5.94982 13.5638H5.95393L8.46519 14.4098C8.57782 14.7714 9.23044 16.917 9.3873 17.4112C9.47987 17.7064 9.56987 17.891 9.6825 18.0319C9.73702 18.1039 9.80079 18.1641 9.87742 18.2125C9.91725 18.2356 9.95973 18.2539 10.0039 18.267L9.97822 18.2608C9.98593 18.2629 9.9921 18.269 9.99776 18.2711C10.0183 18.2767 10.0322 18.2788 10.0584 18.2829C10.456 18.4033 10.7754 18.1564 10.7754 18.1564L10.7934 18.142L12.276 16.792L14.7611 18.6985L14.8176 18.7226C15.3355 18.9499 15.8601 18.8234 16.1373 18.6002C16.4166 18.3755 16.5251 18.088 16.5251 18.088L16.5431 18.0417L18.4634 8.20395C18.5179 7.9612 18.5318 7.73389 18.4716 7.51326C18.4096 7.28997 18.2663 7.09793 18.07 6.9748C17.9051 6.87458 17.7139 6.8262 17.5212 6.83595ZM17.4693 7.89023C17.4672 7.92263 17.4734 7.91903 17.459 7.98126V7.98692L15.5567 17.7223C15.5484 17.7362 15.5346 17.7666 15.4965 17.7969C15.4564 17.8288 15.4245 17.8489 15.2574 17.7825L12.2179 15.4523L10.3819 17.1258L10.7676 14.6623L15.7336 10.0338C15.9383 9.84349 15.8699 9.80337 15.8699 9.80337C15.8843 9.56989 15.5608 9.73497 15.5608 9.73497L9.29884 13.6142L9.29679 13.6039L6.29542 12.5934V12.5913L6.2877 12.5898C6.29296 12.588 6.29812 12.586 6.30313 12.5836L6.31959 12.5754L6.33553 12.5697C6.33553 12.5697 9.01547 11.4403 11.7396 10.2935C13.1035 9.71903 14.4777 9.14046 15.5346 8.69406C16.5914 8.25023 17.3726 7.92469 17.4168 7.9072C17.459 7.89075 17.439 7.89075 17.4693 7.89075V7.89023Z" fill="white"/>
</g>
</svg>
