<svg width="35" height="39" viewBox="0 0 35 39" fill="none" xmlns="http://www.w3.org/2000/svg">
<path d="M9.17647 24.0883H2.44308C2.76334 22.8829 3.58303 21.8586 4.73781 21.2811L6.97473 20.1627C8.33277 19.4837 9.17639 18.1187 9.17639 16.6004C9.17639 14.4043 7.38974 12.6177 5.19365 12.6177H3.98274C1.78666 12.6177 0 14.4043 0 16.6004V17.2059H2.29412V16.6004C2.29412 15.6693 3.05163 14.9118 3.98274 14.9118H5.19373C6.12484 14.9118 6.88235 15.6693 6.88235 16.6004C6.88235 17.2441 6.5247 17.8229 5.94888 18.1108L3.71188 19.2293C1.42228 20.3741 0 22.6755 0 25.2353V26.3824H9.17647V24.0883Z" fill="black"/>
<path d="M17.206 18.353H15.6251C14.5993 18.353 13.7648 17.5185 13.7648 16.4927V12.6177H11.4707V16.4927C11.4707 18.7834 13.3344 20.6471 15.6251 20.6471H17.206V26.3824H19.5001V12.6177H17.206V18.353Z" fill="black"/>
<path d="M30.1532 26.3422L34.442 12.6177H25.6172V14.9118H31.3217L27.9635 25.6579L30.1532 26.3422Z" fill="black"/>
<path d="M21.7939 18.353H25.2351V20.6471H21.7939V18.353Z" fill="black"/>
<path d="M16.0586 0H18.3527V4.58824H16.0586V0Z" fill="black"/>
<path d="M10.8545 2.51465L13.0706 1.92047L13.8629 4.87537L11.6467 5.46955L10.8545 2.51465Z" fill="black"/>
<path d="M6.0791 4.81787L8.06581 3.67081L9.59526 6.31982L7.60855 7.46688L6.0791 4.81787Z" fill="black"/>
<path d="M2.06445 8.27588L3.68639 6.65394L5.84898 8.81653L4.22704 10.4385L2.06445 8.27588Z" fill="black"/>
<path d="M20.5557 4.87646L21.3479 1.92157L23.564 2.51574L22.7718 5.47064L20.5557 4.87646Z" fill="black"/>
<path d="M24.8145 6.32031L26.3439 3.6713L28.3306 4.81836L26.8012 7.46737L24.8145 6.32031Z" fill="black"/>
<path d="M28.5566 8.81934L30.7192 6.65675L32.3412 8.27869L30.1786 10.4413L28.5566 8.81934Z" fill="black"/>
<path d="M16.0586 34.4116H18.3527V38.9999H16.0586V34.4116Z" fill="black"/>
<path d="M10.8584 36.4893L11.6507 33.5344L13.8668 34.1285L13.0745 37.0834L10.8584 36.4893Z" fill="black"/>
<path d="M6.0791 34.1821L7.60855 31.5331L9.59526 32.6802L8.06581 35.3292L6.0791 34.1821Z" fill="black"/>
<path d="M2.06152 30.7217L4.22411 28.5591L5.84605 30.181L3.68346 32.3436L2.06152 30.7217Z" fill="black"/>
<path d="M20.5586 34.1206L22.7747 33.5264L23.567 36.4813L21.3509 37.0755L20.5586 34.1206Z" fill="black"/>
<path d="M24.8145 32.6792L26.8012 31.5321L28.3306 34.1811L26.3439 35.3282L24.8145 32.6792Z" fill="black"/>
<path d="M28.5547 30.1841L30.1766 28.5621L32.3392 30.7247L30.7173 32.3467L28.5547 30.1841Z" fill="black"/>
</svg>
