<svg width="25" height="25" viewBox="0 0 25 25" fill="none" xmlns="http://www.w3.org/2000/svg">
<path d="M4.93333 2.46666C4.27913 2.46666 3.65172 2.72654 3.18913 3.18913C2.72654 3.65172 2.46666 4.27913 2.46666 4.93333V19.7333C2.46666 20.3875 2.72654 21.0149 3.18913 21.4775C3.65172 21.9401 4.27913 22.2 4.93333 22.2H19.7333C20.3875 22.2 21.0149 21.9401 21.4775 21.4775C21.9401 21.0149 22.2 20.3875 22.2 19.7333V4.93333C22.2 4.27913 21.9401 3.65172 21.4775 3.18913C21.0149 2.72654 20.3875 2.46666 19.7333 2.46666H4.93333ZM4.93333 0H19.7333C21.0417 0 22.2965 0.51976 23.2217 1.44494C24.1469 2.37012 24.6666 3.62493 24.6666 4.93333V19.7333C24.6666 21.0417 24.1469 22.2965 23.2217 23.2217C22.2965 24.1469 21.0417 24.6666 19.7333 24.6666H4.93333C3.62493 24.6666 2.37012 24.1469 1.44494 23.2217C0.51976 22.2965 0 21.0417 0 19.7333V4.93333C0 3.62493 0.51976 2.37012 1.44494 1.44494C2.37012 0.51976 3.62493 0 4.93333 0Z" fill="#6C6E72"/>
<path d="M18.3851 9.66323C18.4737 9.37412 18.3851 9.16211 17.966 9.16211H16.5777C16.2244 9.16211 16.063 9.34552 15.9743 9.54697C15.9743 9.54697 15.2685 11.2375 14.2682 12.3336C13.9454 12.6526 13.7979 12.7533 13.6219 12.7533C13.5339 12.7533 13.406 12.6526 13.406 12.3635V9.66323C13.406 9.3163 13.3041 9.16211 13.0097 9.16211H10.8281C10.6078 9.16211 10.4749 9.32252 10.4749 9.47547C10.4749 9.80375 10.975 9.8796 11.0263 10.8048V12.8117C11.0263 13.2513 10.9459 13.3315 10.7686 13.3315C10.2983 13.3315 9.15367 11.6348 8.47439 9.69246C8.34208 9.31506 8.2085 9.16273 7.85399 9.16273H6.4663C6.06937 9.16273 5.99023 9.34615 5.99023 9.54759C5.99023 9.90944 6.4606 11.7001 8.18128 14.0683C9.3284 15.6854 10.9434 16.5621 12.4146 16.5621C13.2965 16.5621 13.4054 16.3675 13.4054 16.0317V14.8094C13.4054 14.4202 13.4896 14.3419 13.7687 14.3419C13.9739 14.3419 14.3271 14.4438 15.1507 15.2229C16.0915 16.1468 16.2472 16.5615 16.7758 16.5615H18.1635C18.5598 16.5615 18.7579 16.3669 18.644 15.9826C18.5193 15.6003 18.0698 15.0438 17.4734 14.3854C17.1493 14.0098 16.665 13.6057 16.5175 13.4036C16.3118 13.1431 16.3713 13.0281 16.5175 12.7968C16.5175 12.7968 18.2091 10.4584 18.3851 9.66323Z" fill="#6C6E72"/>
</svg>
