<svg width="24" height="25" viewBox="0 0 24 25" fill="none" xmlns="http://www.w3.org/2000/svg">
<path d="M17.496 15.0497C17.1952 14.8975 15.7305 14.1827 15.4567 14.0807C15.183 13.9832 14.9842 13.9322 14.7847 14.233C14.5897 14.5262 14.0152 15.1975 13.8397 15.3932C13.6642 15.589 13.4917 15.604 13.1955 15.4712C12.8947 15.319 11.934 15.0062 10.7933 13.9832C9.90225 13.1905 9.309 12.214 9.13275 11.9132C8.95725 11.6162 9.11325 11.4482 9.26175 11.2997C9.39825 11.1632 9.5625 10.9562 9.71475 10.7762C9.8595 10.5962 9.906 10.4755 10.0118 10.2805C10.1093 10.0697 10.059 9.90549 9.98475 9.75699C9.9105 9.60849 9.31275 8.13624 9.063 7.54974C8.8245 6.96774 8.57475 7.04199 8.391 7.04199C8.21925 7.02624 8.01975 7.02624 7.821 7.02624C7.62225 7.02624 7.2975 7.10049 7.02375 7.38549C6.75 7.68624 5.97675 8.40474 5.97675 9.85824C5.97675 11.3155 7.047 12.7255 7.1955 12.9362C7.34775 13.1312 9.30075 16.1312 12.297 17.4205C13.0118 17.7212 13.5667 17.9012 14.0002 18.0497C14.715 18.2762 15.3675 18.2447 15.8827 18.1705C16.4527 18.0767 17.6483 17.4475 17.8988 16.7447C18.153 16.0375 18.153 15.4517 18.0788 15.319C18.0045 15.1825 17.8095 15.1082 17.5087 14.9755L17.496 15.0497ZM12.0623 22.417H12.0465C10.2727 22.417 8.51925 21.9362 6.98775 21.0377L6.6285 20.8232L2.8785 21.7997L3.8865 18.151L3.64425 17.776C2.65385 16.2013 2.12842 14.3788 2.1285 12.5185C2.1285 7.07349 6.58575 2.63199 12.0697 2.63199C14.7263 2.63199 17.2185 3.66699 19.0935 5.54199C20.0185 6.45594 20.7521 7.54493 21.2518 8.74544C21.7514 9.94594 22.0069 11.2339 22.0035 12.5342C21.996 17.9755 17.5425 22.417 12.066 22.417H12.0623ZM20.5192 4.11624C18.2377 1.91274 15.2378 0.666992 12.0465 0.666992C5.4645 0.666992 0.105 6.00324 0.10125 12.5612C0.10125 14.6552 0.648 16.6982 1.695 18.5065L0 24.667L6.336 23.0147C8.09123 23.9611 10.0532 24.4588 12.0472 24.4637H12.051C18.6368 24.4637 23.9963 19.1275 24 12.565C24 9.38949 22.7618 6.40074 20.5042 4.15449L20.5192 4.11624Z" fill="#6C6E72"/>
</svg>
