<svg width="328" height="139" viewBox="0 0 328 139" fill="none" xmlns="http://www.w3.org/2000/svg">
<path d="M58.9442 136.22H81.4872V114.165H93.9597V93.3153H81.4872V58.5653H58.9442V93.3153H25.407L67.9984 2.78H42.5914L0 93.3153V114.165H58.9442V136.22Z" fill="#FBA50D"/>
<path d="M163.972 139C173.457 139 181.772 136.992 188.917 132.977C196.123 128.899 201.728 123.247 205.732 116.019C209.797 108.791 211.829 100.451 211.829 90.9987V48.0013C211.829 38.4876 209.797 30.1476 205.732 22.9813C201.728 15.7533 196.123 10.1315 188.917 6.116C181.772 2.03867 173.457 0 163.972 0C154.487 0 146.141 2.03867 138.934 6.116C131.79 10.1315 126.185 15.7533 122.12 22.9813C118.116 30.1476 116.114 38.4876 116.114 48.0013V90.9987C116.114 100.451 118.116 108.791 122.12 116.019C126.185 123.247 131.79 128.899 138.934 132.977C146.141 136.992 154.487 139 163.972 139ZM163.972 117.779C159.291 117.779 155.041 116.667 151.222 114.443C147.465 112.158 144.447 109.13 142.168 105.362C139.951 101.532 138.842 97.2691 138.842 92.574V46.3333C138.842 41.5764 139.951 37.3138 142.168 33.5453C144.447 29.7151 147.465 26.688 151.222 24.464C155.041 22.1782 159.291 21.0353 163.972 21.0353C168.653 21.0353 172.872 22.1782 176.629 24.464C180.448 26.688 183.466 29.7151 185.683 33.5453C187.962 37.3138 189.102 41.5764 189.102 46.3333V92.574C189.102 97.2691 187.962 101.532 185.683 105.362C183.466 109.13 180.448 112.158 176.629 114.443C172.872 116.667 168.653 117.779 163.972 117.779Z" fill="#FBA50D"/>
<path d="M292.985 136.22H315.527V114.165H328V93.3153H315.527V58.5653H292.985V93.3153H259.447L302.039 2.78H276.632L234.04 93.3153V114.165H292.985V136.22Z" fill="#FBA50D"/>
</svg>
