<svg width="115" height="62" viewBox="0 0 115 62" fill="none" xmlns="http://www.w3.org/2000/svg">
<path fill-rule="evenodd" clip-rule="evenodd" d="M29.8332 41.0393V41.0653C34.0962 34.697 36.2538 28.2243 36.2799 20.5718C36.2799 12.9649 33.9724 6.34883 29.8332 0H29.8072C26.0657 5.97077 23.6865 12.2218 23.4649 19.1834C23.2172 26.9662 25.4529 34.6253 29.8332 41.0393ZM29.8332 39.5531V39.527C28.6469 37.2 28.0212 34.6709 28.0212 32.0896C28.0212 29.5605 28.6404 26.9076 29.8332 24.6783V24.6522C30.974 27.0054 31.6453 29.4628 31.6453 32.0896C31.6453 34.7947 30.974 37.1283 29.8332 39.5531ZM25.0553 19.0074C25.479 13.356 27.1868 8.27825 29.8137 3.1679L29.8398 3.19397C32.8643 8.64328 34.4482 14.0013 34.7481 20.1937C34.898 22.9184 34.6242 25.5713 34.0571 28.2503C34.181 25.4996 34.031 22.9249 33.5356 20.2459C32.8643 16.5304 31.5802 13.2061 29.8398 9.83613L29.8137 9.81005C28.2754 12.8606 27.1151 15.859 26.3916 19.1508C25.7202 22.2209 25.5703 25.0759 25.5703 28.2438C25.127 25.1542 24.8272 22.1297 25.0553 19.0074Z" fill="#898989"/>
<path fill-rule="evenodd" clip-rule="evenodd" d="M23.2954 48.6009C24.5339 47.3885 25.7007 46.7693 27.4606 46.9388C30.283 47.2125 32.0951 48.8943 32.245 51.6971C32.5188 57.0487 25.4269 60.2948 20.9944 60.0471C14.5739 59.7277 10.3109 55.5886 9.29408 49.6895C8.67484 46.0979 10.0111 42.1543 12.5402 39.4297C15.0432 36.7507 18.4393 35.6882 21.9592 35.61V19.5293C9.93939 19.5293 1.06798 28.0552 0.448737 39.7295C-0.222649 52.7401 9.22238 61.5659 21.2682 61.983C27.6627 62.2307 32.4471 59.8255 36.8339 55.6863V41.8349H23.2954V48.6009Z" fill="#898989"/>
<path fill-rule="evenodd" clip-rule="evenodd" d="M40.0273 61.5205H44.0491V45.0032H45.9003V41.8613H40.0273V61.5205Z" fill="#898989"/>
<path fill-rule="evenodd" clip-rule="evenodd" d="M47.9727 41.8613L46.0693 61.5205H49.6544L50.0651 57.9159H51.6229L52.0597 61.5205H55.6382L53.7153 41.8613H47.9727ZM50.215 54.3113L50.7495 47.2194H50.945L51.5056 54.3113H50.215Z" fill="#898989"/>
<path fill-rule="evenodd" clip-rule="evenodd" d="M65.0783 51.3846V51.1695C65.9582 51.0261 65.9322 49.2922 65.9322 48.5165V45.3682C65.9322 42.9564 65.7627 41.8613 62.9598 41.8613H59.6224C56.7935 41.8613 56.624 43.2758 56.624 45.3682V47.9494H60.6458V45.7332C60.6458 45.2183 61.063 45.0749 61.2781 45.0749C61.6692 45.0749 61.9104 45.3943 61.9104 45.7332V48.0733C61.9104 49.2922 61.5193 49.5334 60.3786 49.5334H59.6224V52.9685H60.3069C61.8191 52.9685 61.9169 53.6529 61.9169 54.2591V57.8442C61.9169 58.1832 61.6757 58.5026 61.2846 58.5026C61.063 58.5026 60.6523 58.3526 60.6523 57.8442V54.383H56.6305V57.9876C56.6305 60.7905 56.8 61.5205 59.629 61.5205H62.9663C65.5476 61.5205 65.9387 61.0317 65.9387 57.9876V54.044C65.9256 53.3336 66.0495 51.3846 65.0783 51.3846Z" fill="#898989"/>
<path fill-rule="evenodd" clip-rule="evenodd" d="M67.7314 61.5205H71.7532V45.0488H73.0178V61.5205H77.0396V41.8613H67.7314V61.5205Z" fill="#898989"/>
<path fill-rule="evenodd" clip-rule="evenodd" d="M85.4406 41.8613H79.1309V61.5205H83.1527V54.8197H85.4406C88.263 54.8197 88.4325 53.5552 88.4325 51.3129V45.3682C88.439 43.6408 88.2695 41.8613 85.4406 41.8613ZM84.4172 50.7784C84.4172 51.4106 84.0978 51.7757 83.6611 51.7757H83.1527V45.0032H83.6611C84.0978 45.0032 84.4172 45.3682 84.4172 45.9809V50.7784Z" fill="#898989"/>
<path fill-rule="evenodd" clip-rule="evenodd" d="M96.4582 41.8613H93.1208C90.3179 41.8613 90.1484 43.4713 90.1484 45.3225V57.9941C90.1484 60.2821 90.3179 61.5271 93.1208 61.5271H96.4582C99.2871 61.5271 99.4566 60.432 99.4566 57.9941V45.3682C99.4501 43.4713 99.2806 41.8613 96.4582 41.8613ZM95.4348 57.7464C95.4348 58.0854 95.1675 58.3787 94.796 58.3787C94.5548 58.3787 94.1637 58.2549 94.1637 57.7464V45.6876C94.1637 45.1791 94.5548 45.0553 94.796 45.0553C95.161 45.0553 95.4348 45.3486 95.4348 45.6876V57.7464Z" fill="#898989"/>
<path fill-rule="evenodd" clip-rule="evenodd" d="M109.63 41.8613L108.027 50.8501L106.567 41.8613H101.326V61.5205H105.374V52.6035H105.517L106.854 61.5205H109.318L110.706 52.6035H110.849V61.5205H114.871V41.8613H109.63Z" fill="#898989"/>
</svg>
