<svg width="60" height="55" viewBox="0 0 60 55" fill="none" xmlns="http://www.w3.org/2000/svg">
<path d="M51.6011 0.00554143C49.9711 0.00554143 48.7314 1.07492 48.1145 2.37093L39.1862 17.0692C38.5693 18.4274 38.1197 19.9529 38.1197 20.9659C38.1197 21.8714 38.237 22.6639 38.5709 23.3997L48.2239 46.452H10.7195C9.37251 46.452 8.25836 45.1049 8.25836 43.8541V4.12105C7.97539 -1.30634 0.169787 -1.30639 0 4.28512L0.164073 46.452C0.164073 51.0361 3.70818 54.7103 8.25836 54.7103H59.3945L46.9386 22.8391C46.5991 21.6506 46.4292 20.576 47.2668 19.1611L55.5251 5.76178C55.644 5.47881 55.7986 4.29087 55.7986 3.95697C55.6345 1.52341 53.7347 -0.107647 51.6011 0.00554143ZM31.3517 0.0192142C29.3454 0.0333639 27.3456 1.40735 27.3456 4.12105V32.5604C27.3456 36.6861 21.7807 36.3522 21.7807 32.5604V4.12105C21.7807 -1.30634 13.7548 -1.30634 13.7548 4.12105V32.7792C13.7548 39.3328 18.6337 43.6901 24.4743 43.6901C30.4789 43.6901 35.3715 39.3328 35.3715 32.7792V4.12105C35.3715 1.35076 33.3579 0.00506452 31.3517 0.0192142Z" fill="white"/>
</svg>
