<svg width="113" height="63" viewBox="0 0 113 63" fill="none" xmlns="http://www.w3.org/2000/svg">
<path fill-rule="evenodd" clip-rule="evenodd" d="M16.0618 21.1295H21.731V28.3698H27.7777V21.1295H33.4469V40.8917H27.7777V33.0645H21.731V40.8917H16.0618V21.1295ZM53.666 21.1295V40.8917H48.1866V25.8265H44.5955V31.5C44.5955 34.0433 44.4056 37.1735 42.8948 38.9352C41.3829 40.8917 38.5488 41.4785 35.3362 40.8917V35.9998C38.359 36.5867 39.1161 35.413 39.1161 31.5V21.1295H53.666ZM58.3905 21.1295H64.0586L67.2712 32.8697L70.4837 21.1295H76.1518L78.7983 40.8917H73.5054L72.1833 30.3263L69.1605 40.8917H65.3818L62.3579 30.3263L61.0347 40.8917H55.744L58.3905 21.1295ZM80.8764 21.1295H86.5444V29.1515L92.0261 21.1295H98.2603L91.0803 30.9132L98.449 40.8917H91.6464L86.5444 32.8697V40.8917H80.8764V21.1295ZM56.5 0C22.487 0 0 12.7167 0 31.5C0 50.0873 22.487 63 56.5 63C90.7017 63 113 50.0873 113 31.5C113 12.7167 90.7017 0 56.5 0ZM56.5 60.0658C24.5651 60.0658 3.21259 48.5217 3.21259 31.5C3.21259 14.2823 24.5651 2.93417 56.5 2.93417C88.6236 2.93417 109.787 14.2823 109.787 31.5C109.787 48.5217 88.6236 60.0658 56.5 60.0658ZM56.5 5.67233C26.4556 5.67233 6.42518 16.0428 6.42518 31.5C6.42518 46.9572 26.4556 57.3265 56.5 57.3265C86.5444 57.3265 106.575 46.9572 106.575 31.5C106.575 16.0428 86.5444 5.67233 56.5 5.67233ZM56.5 56.7397C26.833 56.7397 6.99131 46.5652 6.99131 31.5C6.99131 16.4348 26.833 6.26033 56.5 6.26033C86.167 6.26033 106.009 16.4348 106.009 31.5C106.009 46.5652 86.167 56.7397 56.5 56.7397Z" fill="#004E94"/>
</svg>
