<svg width="103" height="46" viewBox="0 0 103 46" fill="white" xmlns="http://www.w3.org/2000/svg">
<path d="M72.1947 4.07351V5.73095H86.4136C87.3616 5.73095 88.7835 5.73095 89.717 6.67888C90.6506 7.6268 90.665 9.0487 90.665 9.98226V24.2012C90.665 25.1491 90.665 26.571 89.717 27.5046C88.7691 28.4525 87.3472 28.4525 86.4136 28.4525H79.5484C78.3649 28.4525 76.8223 28.4525 76.245 27.1484C75.6532 25.8442 76.4817 24.6608 77.1929 23.7014L86.4424 11.3783H72.2235L66.5359 18.9617C65.5822 20.2314 64.7578 21.3315 64.7578 22.7534C64.7578 24.1753 65.5248 25.1979 66.5359 26.5451L67.9578 28.441C69.3797 30.3368 70.8016 32.2327 72.6974 33.1806C74.5933 34.1286 76.8338 34.1286 79.9361 34.1286H86.0833C89.6452 34.1286 94.9594 34.1286 98.5213 30.5667C102.083 27.0047 102.083 21.8055 102.083 19.9096V14.2221C102.083 12.3262 102.083 7.12699 98.5213 3.56508C94.9594 0.00316925 89.6452 0.00316926 86.0833 0.00316926L76.2593 9.50038e-06C75.3114 -0.00027775 74.1279 9.51954e-06 73.1857 0.947937C72.2378 1.89586 72.2378 3.07934 72.2378 4.02152" />
<path d="M55.3228 11.4277H69.3981L52.4503 34.2354H38.375L55.3228 11.4277Z" />
<path d="M0 15.4492C0 14.5013 0 13.3178 0.947927 12.3757C1.89585 11.4335 3.07933 11.4277 4.02151 11.4277H27.8346C30.9082 11.4277 33.1775 11.4277 35.0733 12.3757C36.9692 13.3236 38.3767 15.2194 39.813 17.1153L41.2348 19.0112C42.2431 20.3555 43.0129 21.381 43.0129 22.8029C43.0129 24.2248 42.1885 25.3249 41.2348 26.5946L35.5473 34.178H21.3284L30.5778 21.8549C31.2874 20.907 32.1175 19.7235 31.5258 18.4079C30.934 17.1038 29.3944 17.1038 28.2224 17.1038H17.0771V45.5416H5.70193V17.1038H0.0143625V15.4435" />
</svg>
