<svg width="55" height="71" viewBox="0 0 55 71" fill="none" xmlns="http://www.w3.org/2000/svg">
<path d="M3.56055 63.396C4.05876 63.3144 4.76117 63.249 5.74127 63.249C6.73771 63.249 7.44828 63.4369 7.922 63.8207C8.37938 64.1801 8.68158 64.7763 8.68158 65.4706C8.68158 66.173 8.44472 66.7611 8.02817 67.1613C7.48095 67.6758 6.6642 67.9127 5.7086 67.9127C5.49625 67.9127 5.30839 67.9045 5.16138 67.88V70.4283H3.56055V63.396ZM5.15321 66.6385C5.29206 66.6712 5.46358 66.6794 5.69227 66.6794C6.54985 66.6794 7.08074 66.2465 7.08074 65.5196C7.08074 64.8662 6.62336 64.4741 5.82295 64.4741C5.49625 64.4741 5.27572 64.5068 5.15321 64.5395V66.6385Z" fill="#898989"/>
<path d="M16.7357 66.794C16.7357 69.1299 15.3146 70.551 13.2318 70.551C11.1165 70.551 9.875 68.9502 9.875 66.9165C9.875 64.7766 11.239 63.1758 13.3462 63.1758C15.5433 63.1839 16.7357 64.8256 16.7357 66.794ZM11.582 66.892C11.582 68.2886 12.2354 69.2769 13.3217 69.2769C14.408 69.2769 15.0369 68.2396 15.0369 66.8512C15.0369 65.5689 14.4243 64.4662 13.3135 64.4662C12.2191 64.4662 11.582 65.5035 11.582 66.892Z" fill="#898989"/>
<path d="M23.5621 70.2322C23.268 70.3792 22.5983 70.5507 21.7326 70.5507C19.266 70.5507 18 69.007 18 66.9733C18 64.5394 19.7315 63.1836 21.8959 63.1836C22.729 63.1836 23.3661 63.3551 23.6519 63.5021L23.3252 64.7844C22.9985 64.6456 22.5411 64.5231 21.9694 64.5231C20.6871 64.5231 19.6907 65.299 19.6907 66.8835C19.6907 68.3128 20.5401 69.2112 21.9776 69.2112C22.4676 69.2112 23.0067 69.105 23.3252 68.9744L23.5621 70.2322Z" fill="#898989"/>
<path d="M26.4137 68.1902L25.6704 70.4363H24.7148L27.1406 63.2979H28.2514L30.6853 70.4363H29.697L28.9374 68.1902H26.4137ZM28.7578 67.4714L28.0554 65.4214C27.9002 64.9559 27.794 64.5311 27.6878 64.1228H27.6633C27.5571 64.5475 27.4428 64.9804 27.3039 65.4132L26.6097 67.4796H28.7578V67.4714Z" fill="#898989"/>
<path d="M32.8093 64.0819H30.6367V63.2979H35.9211V64.0819H33.7404V70.4363H32.8093V64.0819Z" fill="#898989"/>
<path d="M43.0571 66.7936C43.0571 69.2521 41.5624 70.5507 39.7411 70.5507C37.8544 70.5507 36.5312 69.0887 36.5312 66.9325C36.5312 64.6701 37.9361 63.1836 39.8473 63.1836C41.7993 63.1836 43.0571 64.6782 43.0571 66.7936ZM37.5195 66.908C37.5195 68.4353 38.3444 69.7993 39.7983 69.7993C41.2602 69.7993 42.0852 68.4516 42.0852 66.8345C42.0852 65.4133 41.3419 63.935 39.8064 63.935C38.2791 63.935 37.5195 65.348 37.5195 66.908Z" fill="#898989"/>
<path d="M50.7929 67.2999C50.7357 66.3035 50.6785 65.111 50.6867 64.2208H50.654C50.409 65.0539 50.115 65.9605 49.7556 66.9324L48.4978 70.3954H47.7954L46.6438 66.9977C46.3089 65.9931 46.0231 65.0702 45.8189 64.2208H45.7944C45.7699 65.111 45.7209 66.3035 45.6555 67.3734L45.4677 70.4363H44.5938L45.092 63.2979H46.2681L47.485 66.7527C47.7791 67.6348 48.0241 68.4189 48.2038 69.154H48.2365C48.4161 68.4352 48.6693 67.6511 48.9879 66.7527L50.2538 63.2979H51.43L51.871 70.4363H50.9726L50.7929 67.2999Z" fill="#898989"/>
<path d="M32.0009 31.3963C29.8692 33.7567 26.2346 33.9364 23.8742 31.8047C21.522 29.6648 21.3423 26.0139 23.4658 23.6535C25.5976 21.2931 29.2321 21.1134 31.5925 23.2533C33.9448 25.385 34.1326 29.0359 32.0009 31.3963Z" fill="#898989"/>
<path d="M14.4075 27.7292C14.4075 27.7292 17.6092 26.0957 19.4632 18.8429C21.3172 11.5902 28.2351 8.21701 28.2351 8.21701C28.2351 8.21701 13.3947 -6.50901 2.15625 16.5969C2.15625 16.5969 11.3202 18.3937 14.4075 27.7292Z" fill="#898989"/>
<path d="M15.7637 2.54049C15.7637 2.54049 27.2064 0.29443 33.9772 14.6284C33.9772 14.6284 41.8752 17.1848 48.8176 9.85042C48.8176 9.85042 37.2034 -6.03539 15.7637 2.54049Z" fill="#898989"/>
<path d="M34.4176 38.5835C34.4176 38.5835 31.4038 36.6233 24.1919 38.6489C16.9881 40.6744 10.6093 36.3701 10.6093 36.3701C10.6093 36.3701 5.28409 56.5929 30.9137 54.7634C30.9137 54.7634 27.8836 45.9343 34.4176 38.5835Z" fill="#898989"/>
<path d="M11.9409 50.0182C11.9409 50.0182 4.2716 41.2382 13.2967 28.2028C13.2967 28.2028 11.557 20.0843 1.73151 17.7402C1.73151 17.7402 -6.21548 35.7333 11.9409 50.0182Z" fill="#898989"/>
<path d="M33.8543 15.9112C33.8543 15.9112 33.6665 19.5049 39.0244 24.7321C44.3822 29.9593 43.8514 37.6367 43.8514 37.6367C43.8514 37.6367 64.0251 32.14 49.6258 10.8555C49.6176 10.8555 43.4838 17.8959 33.8543 15.9112Z" fill="#898989"/>
<path d="M54.9997 29.6641C54.9997 29.6641 51.2345 40.6984 35.4303 39.3997C35.4303 39.3997 29.272 44.9618 32.1552 54.6485C32.1552 54.6485 51.7082 52.5249 54.9997 29.6641Z" fill="#898989"/>
</svg>
