<svg width="163" height="31" viewBox="0 0 163 31" fill="none" xmlns="http://www.w3.org/2000/svg">
<path d="M30.5371 13.4327C30.5371 13.4327 31.2948 4.72065 31.3719 3.86767C31.4875 2.4938 30.3959 0 27.7696 0C26.967 0 20.0257 0 20.0257 0V0.00651124H15.3639H14.6255C14.6255 0.00651124 7.49152 0.00651124 6.0917 0.00651124C3.46544 0.00651124 2.18762 1.81664 2.02709 3.54211C1.92435 4.55787 0.132844 25.6217 0.0172628 26.8328C-0.168951 28.7862 1.16023 30.9935 3.5746 30.9935C4.69831 30.9935 12.6863 30.9935 12.6863 30.9935H16.4876C16.4876 30.9935 23.628 30.9935 25.1369 30.9935C28.0008 30.9935 29.1116 29.4568 29.3556 27.0867C29.5033 25.6673 30.2097 17.092 30.2097 17.092H17.1747L16.6096 23.7204H13.3091L14.7282 7.26654H18.0223L17.5021 13.4262H30.5371V13.4327Z" fill="white"/>
<path d="M50.6483 2.6631C50.186 4.01743 46.3911 16.0567 46.3911 16.0567L48.0798 0H35.0513L32.3223 30.9935C32.3223 30.9935 39.1994 30.9935 42.1403 30.9935C44.606 30.9935 45.4472 29.574 45.8581 28.4411C46.3461 27.0802 49.9613 16.9553 49.9613 16.9553L48.6321 30.9935H61.6671L64.3576 0C64.3576 0 55.0147 0 54.1286 0C51.8683 0.00651124 50.9822 1.69943 50.6483 2.6631Z" fill="white"/>
<path d="M116.67 0.00683594L115.45 14.1427H112.144L113.364 0.00683594H100.329C100.329 0.00683594 99.0764 14.9697 98.948 16.4152C98.7875 18.1406 99.7507 20.5889 102.64 20.5889C104.001 20.5889 114.892 20.5889 114.892 20.5889L114.622 23.7338H98.3187L97.6895 31.0003H114.507H115.245C115.245 31.0003 122.071 31.0003 123.625 31.0003C125.378 31.0003 127.079 29.8348 127.31 27.354C127.458 25.7588 129.699 0.00683594 129.699 0.00683594H116.67Z" fill="white"/>
<path d="M150.683 0.00683594H146.015H132.98L130.309 31.0003H143.344L144.172 21.4093H148.84H147.973C156.18 21.4093 155.647 21.4093 156.835 21.4093C159.075 21.4093 160.559 20.2503 160.803 17.5937C160.899 16.5649 161.926 4.81864 161.997 3.77684C162.151 1.48489 160.353 0.00683594 158.125 0.00683594C157.22 0.00683594 150.683 0.00683594 150.683 0.00683594ZM144.724 14.9631L145.386 7.27338H148.647L147.986 14.9631H144.724Z" fill="white"/>
<path d="M79.8131 10.418L80.0828 7.27305H96.4054L97.0411 0H80.7121H79.9736H67.6771L65.0059 30.9935H69.8988C69.8988 30.9935 89.4385 30.9935 91.0117 30.9935C92.6619 30.9935 94.4534 29.9973 94.691 27.4058C94.8644 25.4589 95.667 16.2455 95.8147 14.5721C96.0073 12.3388 94.6075 10.405 91.8657 10.405C90.5172 10.418 79.8131 10.418 79.8131 10.418ZM81.9193 24.5539H78.5931L79.2545 16.8641H82.5806L81.9193 24.5539Z" fill="white"/>
</svg>
