<svg width="189" height="104" viewBox="0 0 189 104" fill="none" xmlns="http://www.w3.org/2000/svg">
<path fill-rule="evenodd" clip-rule="evenodd" d="M0 52C0 80.673 42.2443 104 94.1739 104C146.103 104 188.348 80.673 188.348 52C188.348 23.327 146.103 0 94.1739 0C42.2544 0 0 23.327 0 52ZM1.47996 52C1.47996 24.1425 43.0598 1.47996 94.1739 1.47996C145.288 1.47996 186.868 24.1425 186.868 52C186.868 79.8575 145.288 102.52 94.1739 102.52C43.0699 102.51 1.47996 79.8575 1.47996 52Z" fill="white"/>
<path fill-rule="evenodd" clip-rule="evenodd" d="M61.0801 8.79932C57.7376 14.5379 55.563 18.3838 53.5293 26.5186C52.9454 31.9652 53.3078 36.8984 54.9086 41.8417C56.8718 47.6508 61.5835 52.1511 64.926 57.3763C67.1812 60.7892 69.2854 63.6888 70.5136 68.0481C71.017 71.9645 71.017 75.6694 70.3727 79.4448C69.0639 83.2907 67.4732 86.2708 65.51 89.0293C64.0602 90.6301 62.7514 91.7174 60.8586 92.5128C58.825 93.2376 56.7208 93.3081 54.6871 93.1672C50.8412 92.3718 47.0658 90.912 43.2199 89.7542C38.2062 87.791 33.424 85.6163 28.6317 83.2202C23.769 80.0287 19.1982 76.7567 14.8389 72.8404C11.3555 69.2059 9.0298 65.511 6.92564 60.8597C5.61683 57.9602 5.18392 54.9801 5.04297 51.4967C5.04297 48.5166 5.76785 45.8386 6.78469 42.9995C8.23445 39.7376 9.68421 36.8984 12.0099 33.7774C14.3355 31.1598 16.9431 28.6932 19.7016 26.2971C22.5307 24.1224 24.6348 22.7432 27.7558 20.9209C31.0983 19.0382 34.1489 17.2864 37.9948 15.6957C41.6997 14.095 45.1127 13.0076 48.9585 11.8498C53.0159 10.6115 56.8617 9.5242 61.0801 8.79932Z" fill="white"/>
<path fill-rule="evenodd" clip-rule="evenodd" d="M126.996 94.5467C130.409 88.7376 132.513 84.8917 134.617 76.757C135.121 71.3103 134.839 66.3771 133.167 61.4338C131.204 55.6247 126.493 51.1244 123.15 45.9697C120.895 42.4863 118.791 39.5767 117.562 35.2274C117.13 31.3111 117.059 27.6766 117.703 23.8307C119.012 19.9848 120.613 17.0048 122.566 14.2462C124.016 12.6454 125.325 11.5581 127.217 10.8332C129.251 10.0379 131.426 9.96741 133.389 10.1084C137.305 10.9037 141.01 12.3635 144.856 13.5213C149.87 15.4845 154.652 17.6592 159.444 20.0553C164.307 23.2468 168.878 26.5893 173.237 30.4352C176.721 34.0696 179.046 37.8451 181.15 42.4158C182.459 45.3153 182.892 48.2954 183.033 51.7788C183.033 54.7589 182.308 57.5175 181.291 60.276C179.842 63.548 178.392 66.3771 176.066 69.4981C173.741 72.1157 171.133 74.5823 168.374 76.9784C165.545 79.2336 163.441 80.5324 160.32 82.4251C156.978 84.2373 153.927 85.979 150.081 87.5798C146.376 89.1806 142.963 90.2679 139.118 91.4962C135.06 92.654 131.214 93.7413 126.996 94.5467Z" fill="white"/>
<path fill-rule="evenodd" clip-rule="evenodd" d="M82.8573 5.96977C90.4786 5.24489 97.3046 5.46638 104.855 5.89929C103.698 8.29542 102.53 10.6211 101.301 12.9467C100.214 15.4838 99.4893 17.3061 98.8349 19.5512C98.11 22.3097 97.5261 25.3603 97.4556 27.9779C97.2341 30.7365 97.3851 32.6292 97.6771 35.0958C98.261 37.8544 98.553 40.3914 99.5597 43.0795C100.939 45.9086 102.61 48.6671 104.422 51.2848C105.872 53.3889 107.181 55.5636 108.631 57.5973C110.151 59.9934 111.097 61.6646 112.477 64.9266C113.353 67.3932 114.077 69.3564 114.51 72.2559C114.651 74.793 114.651 76.9072 114.077 79.4443C113.282 82.2029 112.406 84.6695 111.319 86.9951C110.081 89.4617 109.144 91.3545 107.614 93.7506C106.527 95.1299 105.651 96.5796 104.563 97.9589C96.9421 98.3918 89.8947 98.1804 82.6358 97.7374C83.9446 95.9252 85.3944 93.962 86.6327 92.0793C88.012 89.9047 89.2504 87.5791 90.3377 85.042C91.133 82.7868 91.8579 80.6122 92.3714 78.1456C92.6633 76.2629 92.6633 74.4406 92.5123 72.4069C92.2203 69.9403 91.5659 67.9067 90.4786 65.2186C89.2403 61.8761 87.861 59.9229 86.1998 56.8724C84.4581 54.3353 82.7869 51.7882 81.0451 49.2511C79.8068 46.9254 78.357 45.1132 77.1992 42.3547C76.1824 39.4552 75.528 36.7671 75.236 33.495C75.0145 30.0116 75.1656 27.3235 75.6689 23.6186C76.3233 20.568 77.0482 17.739 78.2866 14.5475C79.8068 11.6278 80.9646 9.09077 82.8573 5.96977Z" fill="white"/>
</svg>
