<svg width="121" height="16" viewBox="0 0 121 16" fill="none" xmlns="http://www.w3.org/2000/svg">
<path fill-rule="evenodd" clip-rule="evenodd" d="M117.647 3.70312L109.832 12.1022L109.605 12.4756L109.711 12.0685V3.70312H107.404V15.3698H109.71L120.546 3.70401V3.70312H117.647Z" fill="white"/>
<path fill-rule="evenodd" clip-rule="evenodd" d="M111.109 1.7928H116.247V-0.000976562H111.109V1.7928Z" fill="white"/>
<path fill-rule="evenodd" clip-rule="evenodd" d="M64.4453 3.70703V10.5239H73.8104V15.3693H76.1174V8.5097H66.7523V3.70703H64.4453Z" fill="white"/>
<path fill-rule="evenodd" clip-rule="evenodd" d="M48.8067 6.9689L46.4418 3.70312H43.6953L47.1634 8.49424L48.8067 6.9689Z" fill="white"/>
<path fill-rule="evenodd" clip-rule="evenodd" d="M0.157478 3.70312V5.68535H7.97087L8.51449 5.62757L8.06518 5.93957L0 15.3698L2.78389 15.3671L12.6997 3.70312H0.157478Z" fill="white"/>
<path fill-rule="evenodd" clip-rule="evenodd" d="M21.7129 15.3695H24.6124L30.811 8.64862L31.0486 8.2504L30.9578 8.67529V15.3695H33.2648V2.92773L21.7129 15.3695Z" fill="white"/>
<path fill-rule="evenodd" clip-rule="evenodd" d="M54.9176 3.70312L44.0605 15.3671H47.0224L57.851 3.70312H54.9176Z" fill="white"/>
<path fill-rule="evenodd" clip-rule="evenodd" d="M85.8828 5.68535H97.554V3.70312H85.8828V5.68535Z" fill="white"/>
<path fill-rule="evenodd" clip-rule="evenodd" d="M85.8809 8.51074V8.75519V15.3703H97.552V13.3499H88.179V10.5276H97.552V8.51074H85.8809Z" fill="white"/>
</svg>
