<svg width="96" height="41" viewBox="0 0 96 41" fill="none" xmlns="http://www.w3.org/2000/svg">
<g clip-path="url(#clip0)">
<path d="M19.8286 0L16.1611 13.8194H23.4961L19.8286 0Z" fill="white"/>
<path d="M0 15.77H60.8967L12.8161 20.4442L27.4861 33.3694L26.0756 26.7442L32.2418 39.9133L0 15.77Z" fill="#FBA50D"/>
<path d="M11.003 27.8418L16.9274 32.3941L6.81152 40.767L11.003 27.8418Z" fill="white"/>
<path d="M38.3509 33.6851C39.2386 33.6851 40.0468 33.5316 40.7756 33.2248C41.5098 32.9179 42.0934 32.4823 42.5263 31.9179C42.9646 31.3481 43.1838 30.6714 43.1838 29.8878C43.1838 29.2631 43.0496 28.7426 42.7811 28.3261C42.5126 27.9097 42.1317 27.5919 41.6386 27.3727C41.9783 27.0659 42.2386 26.6878 42.4194 26.2385C42.6002 25.7837 42.6907 25.3015 42.6907 24.7919C42.6907 24.1892 42.5701 23.6714 42.329 23.2385C42.0934 22.8056 41.7756 22.4522 41.3756 22.1782C40.9756 21.8988 40.5263 21.6933 40.0276 21.5618C39.529 21.4248 39.0194 21.3563 38.4989 21.3563C37.6386 21.3563 36.8633 21.5097 36.1728 21.8166C35.4824 22.1234 34.9317 22.4905 34.5208 22.9179L36.0496 24.5618C36.2468 24.2823 36.5564 24.0275 36.9783 23.7974C37.4057 23.5618 37.8907 23.444 38.4331 23.444C39.0085 23.444 39.466 23.5727 39.8057 23.8303C40.1509 24.0878 40.3235 24.4357 40.3235 24.8741C40.3235 25.3508 40.129 25.7015 39.74 25.9261C39.3564 26.1508 38.877 26.2768 38.3016 26.3042C38.1646 26.3097 37.9728 26.3152 37.7263 26.3207C37.4852 26.3207 37.3098 26.3207 37.2002 26.3207V28.4248C37.2496 28.4248 37.3016 28.4248 37.3564 28.4248C37.4167 28.4248 37.529 28.4275 37.6934 28.433C37.8633 28.4385 38.1372 28.4467 38.5153 28.4577C38.9044 28.4686 39.2742 28.5152 39.6249 28.5974C39.9756 28.6741 40.2605 28.8138 40.4797 29.0166C40.7043 29.2193 40.8167 29.5097 40.8167 29.8878C40.8167 30.1727 40.7372 30.444 40.5783 30.7015C40.4249 30.959 40.1728 31.17 39.8222 31.3344C39.477 31.4988 39.0194 31.5809 38.4496 31.5809C37.8468 31.5809 37.3454 31.4933 36.9454 31.3179C36.5454 31.1426 36.2249 30.9207 35.9838 30.6522C35.7427 30.3837 35.5564 30.1124 35.4249 29.8385L33.5345 31.1535C33.7756 31.5755 34.1126 31.9809 34.5454 32.37C34.9783 32.7535 35.5098 33.0686 36.14 33.3152C36.7756 33.5618 37.5126 33.6851 38.3509 33.6851ZM44.6631 33.4385H49.907C51.1179 33.4385 52.0165 33.107 52.6029 32.444C53.1946 31.7755 53.4905 30.9124 53.4905 29.8549C53.4905 29.2851 53.3508 28.7618 53.0713 28.2851C52.7974 27.8029 52.3837 27.4467 51.8302 27.2166C52.1809 27.0029 52.4549 26.7015 52.6522 26.3124C52.8494 25.9234 52.9481 25.4604 52.9481 24.9234C52.9481 24.4029 52.8275 23.8878 52.5864 23.3782C52.3453 22.8686 51.9645 22.4467 51.4439 22.1125C50.9234 21.7727 50.2412 21.6029 49.3974 21.6029H44.6631V33.4385ZM46.9316 26.222V23.6905H49.3645C49.7919 23.6905 50.1179 23.8138 50.3426 24.0604C50.5672 24.307 50.6796 24.6111 50.6796 24.9727C50.6796 25.4056 50.5535 25.7234 50.3015 25.9261C50.0549 26.1234 49.7426 26.222 49.3645 26.222H46.9316ZM46.9316 31.3344V28.3097H49.6768C50.1974 28.3097 50.5864 28.4494 50.8439 28.7289C51.107 29.0029 51.2385 29.3508 51.2385 29.7727C51.2385 30.2494 51.0905 30.6303 50.7946 30.9152C50.5042 31.1946 50.1316 31.3344 49.6768 31.3344H46.9316ZM54.801 33.4385H62.527V31.3508H57.0366V28.3097H61.5407V26.222H57.0366V23.6905H62.527V21.6029H54.801V33.4385ZM67.9939 33.6851C68.8816 33.6851 69.6898 33.5316 70.4186 33.2248C71.1528 32.9179 71.7364 32.4823 72.1692 31.9179C72.6076 31.3481 72.8268 30.6714 72.8268 29.8878C72.8268 29.2631 72.6925 28.7426 72.424 28.3261C72.1555 27.9097 71.7747 27.5919 71.2816 27.3727C71.6213 27.0659 71.8816 26.6878 72.0624 26.2385C72.2432 25.7837 72.3336 25.3015 72.3336 24.7919C72.3336 24.1892 72.2131 23.6714 71.972 23.2385C71.7364 22.8056 71.4186 22.4522 71.0186 22.1782C70.6186 21.8988 70.1692 21.6933 69.6706 21.5618C69.172 21.4248 68.6624 21.3563 68.1418 21.3563C67.2816 21.3563 66.5062 21.5097 65.8158 21.8166C65.1254 22.1234 64.5747 22.4905 64.1638 22.9179L65.6925 24.5618C65.8898 24.2823 66.1994 24.0275 66.6213 23.7974C67.0487 23.5618 67.5336 23.444 68.0761 23.444C68.6514 23.444 69.109 23.5727 69.4487 23.8303C69.7939 24.0878 69.9665 24.4357 69.9665 24.8741C69.9665 25.3508 69.772 25.7015 69.3829 25.9261C68.9994 26.1508 68.5199 26.2768 67.9446 26.3042C67.8076 26.3097 67.6158 26.3152 67.3692 26.3207C67.1281 26.3207 66.9528 26.3207 66.8432 26.3207V28.4248C66.8925 28.4248 66.9446 28.4248 66.9994 28.4248C67.0597 28.4248 67.172 28.4275 67.3364 28.433C67.5062 28.4385 67.7802 28.4467 68.1583 28.4577C68.5473 28.4686 68.9172 28.5152 69.2679 28.5974C69.6186 28.6741 69.9035 28.8138 70.1227 29.0166C70.3473 29.2193 70.4597 29.5097 70.4597 29.8878C70.4597 30.1727 70.3802 30.444 70.2213 30.7015C70.0679 30.959 69.8158 31.17 69.4651 31.3344C69.1199 31.4988 68.6624 31.5809 68.0925 31.5809C67.4898 31.5809 66.9884 31.4933 66.5884 31.3179C66.1884 31.1426 65.8679 30.9207 65.6268 30.6522C65.3857 30.3837 65.1994 30.1124 65.0679 29.8385L63.1775 31.1535C63.4186 31.5755 63.7555 31.9809 64.1884 32.37C64.6213 32.7535 65.1528 33.0686 65.7829 33.3152C66.4186 33.5618 67.1555 33.6851 67.9939 33.6851ZM73.6486 35.4111H75.8842V33.4385H82.7061V35.4111H84.9417V31.3508H84.0376V21.6029L76.1801 21.5864C76.0979 22.7864 76.0266 23.8686 75.9664 24.833C75.9061 25.7919 75.8349 26.7645 75.7527 27.7508C75.6924 28.4412 75.5883 29.0577 75.4403 29.6001C75.2924 30.1426 75.076 30.57 74.791 30.8823C74.5061 31.1946 74.1253 31.3508 73.6486 31.3508V35.4111ZM76.9856 31.3508C77.2102 31.0549 77.3773 30.77 77.4869 30.496C77.602 30.222 77.6869 29.9015 77.7417 29.5344C77.7965 29.1618 77.8513 28.6878 77.9061 28.1124C77.9609 27.5371 78.0047 27.0166 78.0376 26.5508C78.0705 26.0851 78.0979 25.6248 78.1198 25.17C78.1472 24.7152 78.1801 24.2166 78.2184 23.6741L81.802 23.6905V31.3508H76.9856ZM85.5966 33.4385H87.8979L88.6459 30.9727H93.1007L93.865 33.4385H96.1664L92.55 21.6029H89.213L85.5966 33.4385ZM89.2787 28.8851L90.8568 23.6988L92.4596 28.8851H89.2787Z" fill="white"/>
</g>
<defs>
<clipPath id="clip0">
<rect width="96" height="40.7671" fill="white"/>
</clipPath>
</defs>
</svg>
