<svg width="96" height="41" viewBox="0 0 96 41" fill="none" xmlns="http://www.w3.org/2000/svg">
<g clip-path="url(#clip0)">
<path d="M19.8286 -0.000213623L16.1611 13.8192H23.4961L19.8286 -0.000213623Z" fill="#444A52"/>
<path d="M0 15.77H60.8967L12.8161 20.4442L27.4861 33.3693L26.0756 26.7442L32.2418 39.9132L0 15.77Z" fill="#FBA50D"/>
<path d="M11.003 27.8416L16.9274 32.3938L6.81152 40.7668L11.003 27.8416Z" fill="#444A52"/>
<path d="M38.3509 33.6849C39.2386 33.6849 40.0468 33.5314 40.7756 33.2246C41.5098 32.9177 42.0934 32.4821 42.5263 31.9177C42.9646 31.3479 43.1838 30.6712 43.1838 29.8876C43.1838 29.2629 43.0496 28.7424 42.7811 28.326C42.5126 27.9095 42.1317 27.5917 41.6386 27.3725C41.9783 27.0657 42.2386 26.6876 42.4194 26.2383C42.6002 25.7835 42.6907 25.3013 42.6907 24.7917C42.6907 24.189 42.5701 23.6712 42.329 23.2383C42.0934 22.8054 41.7756 22.452 41.3756 22.178C40.9756 21.8986 40.5263 21.6931 40.0276 21.5616C39.529 21.4246 39.0194 21.3561 38.4989 21.3561C37.6386 21.3561 36.8633 21.5095 36.1728 21.8164C35.4824 22.1232 34.9317 22.4903 34.5208 22.9177L36.0496 24.5616C36.2468 24.2821 36.5564 24.0273 36.9783 23.7972C37.4057 23.5616 37.8907 23.4438 38.4331 23.4438C39.0085 23.4438 39.466 23.5725 39.8057 23.8301C40.1509 24.0876 40.3235 24.4355 40.3235 24.8739C40.3235 25.3506 40.129 25.7013 39.74 25.926C39.3564 26.1506 38.877 26.2766 38.3016 26.304C38.1646 26.3095 37.9728 26.315 37.7263 26.3205C37.4852 26.3205 37.3098 26.3205 37.2002 26.3205V28.4246C37.2496 28.4246 37.3016 28.4246 37.3564 28.4246C37.4167 28.4246 37.529 28.4273 37.6934 28.4328C37.8633 28.4383 38.1372 28.4465 38.5153 28.4575C38.9044 28.4684 39.2742 28.515 39.6249 28.5972C39.9756 28.6739 40.2605 28.8136 40.4797 29.0164C40.7043 29.2191 40.8167 29.5095 40.8167 29.8876C40.8167 30.1725 40.7372 30.4438 40.5783 30.7013C40.4249 30.9588 40.1728 31.1698 39.8222 31.3342C39.477 31.4986 39.0194 31.5808 38.4496 31.5808C37.8468 31.5808 37.3454 31.4931 36.9454 31.3177C36.5454 31.1424 36.2249 30.9205 35.9838 30.652C35.7427 30.3835 35.5564 30.1123 35.4249 29.8383L33.5345 31.1534C33.7756 31.5753 34.1126 31.9808 34.5454 32.3698C34.9783 32.7534 35.5098 33.0684 36.14 33.315C36.7756 33.5616 37.5126 33.6849 38.3509 33.6849ZM44.6631 33.4383H49.907C51.1179 33.4383 52.0165 33.1068 52.6029 32.4438C53.1946 31.7753 53.4905 30.9123 53.4905 29.8547C53.4905 29.2849 53.3508 28.7616 53.0713 28.2849C52.7974 27.8027 52.3837 27.4465 51.8302 27.2164C52.1809 27.0027 52.4549 26.7013 52.6522 26.3123C52.8494 25.9232 52.9481 25.4602 52.9481 24.9232C52.9481 24.4027 52.8275 23.8876 52.5864 23.378C52.3453 22.8684 51.9645 22.4465 51.4439 22.1123C50.9234 21.7725 50.2412 21.6027 49.3974 21.6027H44.6631V33.4383ZM46.9316 26.2218V23.6903H49.3645C49.7919 23.6903 50.1179 23.8136 50.3426 24.0602C50.5672 24.3068 50.6796 24.6109 50.6796 24.9725C50.6796 25.4054 50.5535 25.7232 50.3015 25.926C50.0549 26.1232 49.7426 26.2218 49.3645 26.2218H46.9316ZM46.9316 31.3342V28.3095H49.6768C50.1974 28.3095 50.5864 28.4492 50.8439 28.7287C51.107 29.0027 51.2385 29.3506 51.2385 29.7725C51.2385 30.2492 51.0905 30.6301 50.7946 30.915C50.5042 31.1945 50.1316 31.3342 49.6768 31.3342H46.9316ZM54.801 33.4383H62.527V31.3506H57.0366V28.3095H61.5407V26.2218H57.0366V23.6903H62.527V21.6027H54.801V33.4383ZM67.9939 33.6849C68.8816 33.6849 69.6898 33.5314 70.4186 33.2246C71.1528 32.9177 71.7364 32.4821 72.1692 31.9177C72.6076 31.3479 72.8268 30.6712 72.8268 29.8876C72.8268 29.2629 72.6925 28.7424 72.424 28.326C72.1555 27.9095 71.7747 27.5917 71.2816 27.3725C71.6213 27.0657 71.8816 26.6876 72.0624 26.2383C72.2432 25.7835 72.3336 25.3013 72.3336 24.7917C72.3336 24.189 72.2131 23.6712 71.972 23.2383C71.7364 22.8054 71.4186 22.452 71.0186 22.178C70.6186 21.8986 70.1692 21.6931 69.6706 21.5616C69.172 21.4246 68.6624 21.3561 68.1418 21.3561C67.2816 21.3561 66.5062 21.5095 65.8158 21.8164C65.1254 22.1232 64.5747 22.4903 64.1638 22.9177L65.6925 24.5616C65.8898 24.2821 66.1994 24.0273 66.6213 23.7972C67.0487 23.5616 67.5336 23.4438 68.0761 23.4438C68.6514 23.4438 69.109 23.5725 69.4487 23.8301C69.7939 24.0876 69.9665 24.4355 69.9665 24.8739C69.9665 25.3506 69.772 25.7013 69.3829 25.926C68.9994 26.1506 68.5199 26.2766 67.9446 26.304C67.8076 26.3095 67.6158 26.315 67.3692 26.3205C67.1281 26.3205 66.9528 26.3205 66.8432 26.3205V28.4246C66.8925 28.4246 66.9446 28.4246 66.9994 28.4246C67.0597 28.4246 67.172 28.4273 67.3364 28.4328C67.5062 28.4383 67.7802 28.4465 68.1583 28.4575C68.5473 28.4684 68.9172 28.515 69.2679 28.5972C69.6186 28.6739 69.9035 28.8136 70.1227 29.0164C70.3473 29.2191 70.4597 29.5095 70.4597 29.8876C70.4597 30.1725 70.3802 30.4438 70.2213 30.7013C70.0679 30.9588 69.8158 31.1698 69.4651 31.3342C69.1199 31.4986 68.6624 31.5808 68.0925 31.5808C67.4898 31.5808 66.9884 31.4931 66.5884 31.3177C66.1884 31.1424 65.8679 30.9205 65.6268 30.652C65.3857 30.3835 65.1994 30.1123 65.0679 29.8383L63.1775 31.1534C63.4186 31.5753 63.7555 31.9808 64.1884 32.3698C64.6213 32.7534 65.1528 33.0684 65.7829 33.315C66.4186 33.5616 67.1555 33.6849 67.9939 33.6849ZM73.6486 35.4109H75.8842V33.4383H82.7061V35.4109H84.9417V31.3506H84.0376V21.6027L76.1801 21.5862C76.0979 22.7862 76.0266 23.8684 75.9664 24.8328C75.9061 25.7917 75.8349 26.7643 75.7527 27.7506C75.6924 28.441 75.5883 29.0575 75.4403 29.5999C75.2924 30.1424 75.076 30.5698 74.791 30.8821C74.5061 31.1945 74.1253 31.3506 73.6486 31.3506V35.4109ZM76.9856 31.3506C77.2102 31.0547 77.3773 30.7698 77.4869 30.4958C77.602 30.2218 77.6869 29.9013 77.7417 29.5342C77.7965 29.1616 77.8513 28.6876 77.9061 28.1123C77.9609 27.5369 78.0047 27.0164 78.0376 26.5506C78.0705 26.0849 78.0979 25.6246 78.1198 25.1698C78.1472 24.715 78.1801 24.2164 78.2184 23.6739L81.802 23.6903V31.3506H76.9856ZM85.5966 33.4383H87.8979L88.6459 30.9725H93.1007L93.865 33.4383H96.1664L92.55 21.6027H89.213L85.5966 33.4383ZM89.2787 28.8849L90.8568 23.6986L92.4596 28.8849H89.2787Z" fill="#444A52"/>
</g>
<defs>
<clipPath id="clip0">
<rect width="96" height="40.7671" fill="white"/>
</clipPath>
</defs>
</svg>
